<?xml version="1.0" encoding="utf-8"?>
<!-- Generator: Adobe Illustrator 27.7.0, SVG Export Plug-In . SVG Version: 6.00 Build 0)  -->
<svg version="1.1" id="Layer_1" focusable="false" xmlns="http://www.w3.org/2000/svg" xmlns:xlink="http://www.w3.org/1999/xlink"
	 x="0px" y="0px" viewBox="0 0 440 172" style="enable-background:new 0 0 440 172;" xml:space="preserve">
<style type="text/css">
	.st0{fill:#10B981;fill-opacity:0.12;stroke:#34D399;stroke-opacity:0.2;}
	.st1{fill:none;stroke:#A7F3D0;stroke-opacity:0.34;}
	.st2{fill:none;stroke:#A7F3D0;stroke-opacity:0.26;}
	.st3{fill:none;stroke:#6EE7B7;stroke-opacity:0.18;}
	.st4{fill:none;stroke:#A7F3D0;stroke-opacity:0.18;}
	.st5{fill:none;stroke:#34D399;stroke-opacity:9.000000e-02;}
	.st6{fill:#A7F3D0;fill-opacity:0.92;}
	.st7{fill:#34D399;fill-opacity:8.000000e-02;stroke:#34D399;stroke-opacity:0.18;}
	.st8{enable-background:new    ;}
	.st9{fill:#D1FAE5;}
	.st10{fill:#34D399;fill-opacity:0.82;}
	.st11{fill:none;stroke:#A7F3D0;stroke-opacity:0.32;}
	.st12{fill:none;stroke:#6EE7B7;stroke-opacity:0.24;}
</style>
<g>
	<path class="st0" d="M279.2,86l60.3-59.5c22.2,22.8,30.5,56,19.8,87.2L279.2,86z"/>
	<path class="st1" d="M279.2,86l80.1,27.7"/>
	<g>
		<circle class="st2" cx="279.2" cy="86" r="84.8"/>
		<circle class="st3" cx="279.2" cy="86" r="66.6"/>
		<circle class="st3" cx="279.2" cy="86" r="48.4"/>
		<circle class="st3" cx="279.2" cy="86" r="30.3"/>
		<circle class="st3" cx="279.2" cy="86" r="14.1"/>
		<line class="st4" x1="194.4" y1="86" x2="363.9" y2="86"/>
		<line class="st4" x1="279.2" y1="1.2" x2="279.2" y2="170.8"/>
		<line class="st5" x1="219.7" y1="26.5" x2="338.7" y2="145.5"/>
		<line class="st5" x1="338.7" y1="26.5" x2="219.7" y2="145.5"/>
		<circle class="st6" cx="279.2" cy="86" r="4.3"/>
		<circle class="st7" cx="279.2" cy="86" r="11.6"/>
	</g>
	<g class="st8">
		<g>
			<path class="st9" d="M72.5,41.1c-0.6,0-1.1-0.2-1.4-0.6c-0.3-0.4-0.5-0.9-0.5-1.6v-3.7h0.7v3.7c0,0.5,0.1,0.8,0.3,1.1
				c0.2,0.2,0.5,0.4,0.9,0.4c0.4,0,0.7-0.1,0.9-0.4c0.2-0.2,0.3-0.6,0.3-1.1v-3.7h0.7v3.7c0,0.7-0.2,1.2-0.5,1.6
				C73.5,40.9,73.1,41.1,72.5,41.1z"/>
			<path class="st9" d="M75.8,40.9v-5.7h1l2,4.9v-4.9h0.7v5.7h-1l-2-4.9v4.9H75.8z"/>
			<path class="st9" d="M82.9,41.1c-0.5,0-0.8-0.1-1.2-0.4c-0.3-0.2-0.6-0.6-0.7-1c-0.2-0.4-0.2-1-0.2-1.6c0-0.6,0.1-1.2,0.2-1.6
				c0.2-0.4,0.4-0.8,0.7-1c0.3-0.2,0.7-0.4,1.2-0.4c0.5,0,0.9,0.2,1.3,0.5c0.4,0.3,0.6,0.8,0.7,1.4l-0.7,0c-0.1-0.4-0.2-0.7-0.5-0.9
				c-0.2-0.2-0.5-0.3-0.8-0.3c-0.3,0-0.6,0.1-0.8,0.3s-0.4,0.4-0.5,0.8s-0.2,0.8-0.2,1.3c0,0.5,0.1,0.9,0.2,1.3
				c0.1,0.3,0.3,0.6,0.5,0.8s0.5,0.3,0.8,0.3c0.3,0,0.6-0.1,0.8-0.3c0.2-0.2,0.4-0.6,0.5-1l0.7,0c-0.1,0.6-0.3,1.1-0.7,1.5
				C83.9,40.9,83.4,41.1,82.9,41.1z"/>
			<path class="st9" d="M86.5,40.9v-5.7h0.7v5.4l-0.3-0.4H90v0.7H86.5z"/>
			<path class="st9" d="M91.6,40.9v-5.7h3.5v0.7h-2.8v1.8H95v0.7h-2.7v1.9h2.8v0.7H91.6z"/>
			<path class="st9" d="M96.3,40.9l1.7-5.7H99l1.7,5.7H100l-1.5-5.1l-1.5,5.1H96.3z M97.2,39.3l0.2-0.7h2.2l0.2,0.7H97.2z"/>
			<path class="st9" d="M101.9,40.9v-5.7h1.7c0.6,0,1.1,0.2,1.4,0.5c0.3,0.3,0.5,0.7,0.5,1.3c0,0.3-0.1,0.5-0.2,0.7
				c-0.1,0.2-0.3,0.4-0.5,0.5c-0.2,0.1-0.4,0.2-0.6,0.2l0-0.1c0.4,0,0.7,0.1,0.9,0.3c0.2,0.2,0.3,0.4,0.3,0.8l0.1,1.6h-0.7l-0.1-1.6
				c0-0.2-0.1-0.3-0.1-0.4c-0.1-0.1-0.2-0.2-0.3-0.2c-0.1-0.1-0.3-0.1-0.6-0.1h-1.2v2.3H101.9z M102.6,38h1c0.4,0,0.7-0.1,0.9-0.3
				c0.2-0.2,0.3-0.4,0.3-0.8c0-0.3-0.1-0.6-0.3-0.8c-0.2-0.2-0.5-0.3-0.9-0.3h-1V38z"/>
			<path class="st9" d="M114.2,41.1c-0.4,0-0.8-0.1-1.1-0.3c-0.3-0.2-0.6-0.4-0.7-0.7c-0.2-0.3-0.3-0.6-0.3-1l0.7,0
				c0,0.3,0.1,0.5,0.2,0.7c0.1,0.2,0.3,0.3,0.5,0.5c0.2,0.1,0.4,0.2,0.7,0.2s0.5,0,0.7-0.1c0.2-0.1,0.3-0.2,0.4-0.3
				c0.1-0.1,0.1-0.3,0.1-0.5c0-0.2,0-0.3-0.1-0.5s-0.2-0.3-0.5-0.4s-0.6-0.2-1-0.4c-0.4-0.1-0.7-0.2-1-0.4c-0.2-0.1-0.4-0.3-0.5-0.5
				c-0.1-0.2-0.2-0.4-0.2-0.7c0-0.3,0.1-0.6,0.2-0.9c0.2-0.2,0.4-0.4,0.7-0.6c0.3-0.1,0.6-0.2,1-0.2c0.4,0,0.7,0.1,1,0.2
				c0.3,0.2,0.5,0.4,0.7,0.7c0.2,0.3,0.3,0.6,0.3,0.9l-0.7,0c0-0.2-0.1-0.4-0.2-0.6c-0.1-0.2-0.2-0.3-0.4-0.4
				c-0.2-0.1-0.4-0.2-0.6-0.2c-0.4,0-0.6,0.1-0.8,0.3c-0.2,0.2-0.3,0.4-0.3,0.7c0,0.2,0,0.3,0.1,0.4c0.1,0.1,0.2,0.2,0.4,0.3
				c0.2,0.1,0.5,0.2,0.8,0.3c0.5,0.1,0.8,0.3,1.1,0.4c0.3,0.2,0.5,0.4,0.6,0.6c0.1,0.2,0.2,0.5,0.2,0.8c0,0.3-0.1,0.6-0.2,0.8
				c-0.2,0.2-0.4,0.4-0.7,0.5C115,41,114.6,41.1,114.2,41.1z"/>
			<path class="st9" d="M119.4,41.1c-0.5,0-0.8-0.1-1.2-0.4c-0.3-0.2-0.6-0.6-0.7-1c-0.2-0.4-0.2-1-0.2-1.6c0-0.6,0.1-1.2,0.2-1.6
				c0.2-0.4,0.4-0.8,0.7-1c0.3-0.2,0.7-0.4,1.2-0.4c0.5,0,0.9,0.2,1.3,0.5c0.4,0.3,0.6,0.8,0.7,1.4l-0.7,0c-0.1-0.4-0.2-0.7-0.5-0.9
				c-0.2-0.2-0.5-0.3-0.8-0.3c-0.3,0-0.6,0.1-0.8,0.3s-0.4,0.4-0.5,0.8c-0.1,0.3-0.2,0.8-0.2,1.3c0,0.5,0.1,0.9,0.2,1.3
				c0.1,0.3,0.3,0.6,0.5,0.8s0.5,0.3,0.8,0.3c0.3,0,0.6-0.1,0.8-0.3c0.2-0.2,0.4-0.6,0.5-1l0.7,0c-0.1,0.6-0.3,1.1-0.7,1.5
				C120.3,40.9,119.9,41.1,119.4,41.1z"/>
			<path class="st9" d="M124.6,41.1c-0.4,0-0.8-0.1-1.1-0.3c-0.3-0.2-0.5-0.6-0.7-1c-0.2-0.4-0.2-1-0.2-1.6c0-0.6,0.1-1.2,0.2-1.6
				c0.2-0.4,0.4-0.8,0.7-1c0.3-0.2,0.7-0.3,1.1-0.3c0.4,0,0.8,0.1,1.1,0.3s0.6,0.6,0.7,1c0.2,0.4,0.2,1,0.2,1.6
				c0,0.6-0.1,1.2-0.2,1.6c-0.2,0.4-0.4,0.8-0.7,1S125,41.1,124.6,41.1z M124.6,40.4c0.3,0,0.5-0.1,0.7-0.3c0.2-0.2,0.4-0.4,0.5-0.8
				c0.1-0.3,0.2-0.8,0.2-1.3c0-0.5-0.1-0.9-0.2-1.3c-0.1-0.3-0.3-0.6-0.5-0.8c-0.2-0.2-0.5-0.3-0.7-0.3c-0.3,0-0.5,0.1-0.7,0.3
				s-0.4,0.4-0.5,0.8c-0.1,0.3-0.2,0.8-0.2,1.3c0,0.5,0.1,0.9,0.2,1.3c0.1,0.3,0.3,0.6,0.5,0.8C124,40.3,124.3,40.4,124.6,40.4z"/>
			<path class="st9" d="M128.1,40.9v-5.7h1.7c0.4,0,0.7,0.1,1,0.2c0.3,0.1,0.5,0.3,0.7,0.6c0.2,0.3,0.2,0.6,0.2,0.9
				c0,0.4-0.1,0.7-0.2,0.9c-0.2,0.3-0.4,0.5-0.7,0.6c-0.3,0.1-0.6,0.2-1,0.2h-1v2.2H128.1z M128.8,38h1c0.4,0,0.8-0.1,1-0.3
				c0.2-0.2,0.3-0.5,0.3-0.8c0-0.3-0.1-0.6-0.3-0.8c-0.2-0.2-0.5-0.3-1-0.3h-1V38z"/>
			<path class="st9" d="M133.3,40.9v-5.7h3.5v0.7H134v1.8h2.7v0.7H134v1.9h2.8v0.7H133.3z"/>
		</g>
	</g>
	<g class="st8">
		<g>
			<path class="st9" d="M82.7,88.4l-1.1-4.4h0.1V89H81v-5.7h1l1.1,4.7h-0.3l1.1-4.7h1V89h-0.7v-5.1h0.1l-1.1,4.4H82.7z"/>
			<path class="st9" d="M86.1,89l1.7-5.7h0.9l1.7,5.7h-0.7l-1.5-5.1L86.8,89H86.1z M86.9,87.4l0.2-0.7h2.2l0.2,0.7H86.9z"/>
			<path class="st9" d="M91.7,89v-5.7h1l2,4.9v-4.9h0.7V89h-1l-2-4.9V89H91.7z"/>
			<path class="st9" d="M98.8,89.2c-0.6,0-1.1-0.2-1.4-0.6c-0.3-0.4-0.5-0.9-0.5-1.6v-3.7h0.7V87c0,0.5,0.1,0.8,0.3,1.1
				c0.2,0.2,0.5,0.4,0.9,0.4s0.7-0.1,0.9-0.4c0.2-0.2,0.3-0.6,0.3-1.1v-3.7h0.7V87c0,0.7-0.2,1.2-0.5,1.6
				C99.8,89,99.4,89.2,98.8,89.2z"/>
			<path class="st9" d="M101.8,89l1.7-5.7h0.9l1.7,5.7h-0.7l-1.5-5.1l-1.5,5.1H101.8z M102.7,87.4l0.2-0.7h2.2l0.2,0.7H102.7z"/>
			<path class="st9" d="M107.6,89v-5.7h0.7v5.4l-0.3-0.4h3.2V89H107.6z"/>
			<path class="st9" d="M118.2,89l-0.6-5.7h0.7l0.5,5.3h-0.1l0.6-4.7h0.7l0.6,4.7h-0.1l0.5-5.3h0.7l-0.6,5.7h-1l-0.6-4.5h0.2
				l-0.6,4.5H118.2z"/>
			<path class="st9" d="M125,89.2c-0.5,0-0.8-0.1-1.2-0.3c-0.3-0.2-0.6-0.6-0.7-1c-0.2-0.4-0.2-1-0.2-1.6c0-0.6,0.1-1.2,0.2-1.6
				s0.4-0.8,0.7-1c0.3-0.2,0.7-0.3,1.2-0.3c0.5,0,0.8,0.1,1.1,0.3c0.3,0.2,0.6,0.6,0.7,1c0.2,0.4,0.2,1,0.2,1.6
				c0,0.6-0.1,1.2-0.2,1.6c-0.2,0.4-0.4,0.8-0.7,1C125.8,89,125.4,89.2,125,89.2z M125,88.5c0.3,0,0.5-0.1,0.8-0.3
				c0.2-0.2,0.4-0.4,0.5-0.8c0.1-0.3,0.2-0.8,0.2-1.3s-0.1-0.9-0.2-1.3c-0.1-0.3-0.3-0.6-0.5-0.8c-0.2-0.2-0.5-0.3-0.8-0.3
				c-0.3,0-0.5,0.1-0.8,0.3c-0.2,0.2-0.4,0.4-0.5,0.8c-0.1,0.3-0.2,0.8-0.2,1.3s0.1,0.9,0.2,1.3c0.1,0.3,0.3,0.6,0.5,0.8
				C124.4,88.4,124.7,88.5,125,88.5z"/>
			<path class="st9" d="M128.4,89v-5.7h1.7c0.6,0,1.1,0.2,1.4,0.5c0.3,0.3,0.5,0.7,0.5,1.3c0,0.3-0.1,0.5-0.2,0.7
				c-0.1,0.2-0.3,0.4-0.5,0.5c-0.2,0.1-0.4,0.2-0.6,0.2l0-0.1c0.4,0,0.7,0.1,0.9,0.3s0.3,0.4,0.3,0.8l0.1,1.6h-0.7l-0.1-1.6
				c0-0.2-0.1-0.3-0.1-0.4c-0.1-0.1-0.2-0.2-0.3-0.2c-0.1-0.1-0.3-0.1-0.6-0.1h-1.2V89H128.4z M129.1,86h1c0.4,0,0.7-0.1,0.9-0.3
				c0.2-0.2,0.3-0.4,0.3-0.8c0-0.3-0.1-0.6-0.3-0.8c-0.2-0.2-0.5-0.3-0.9-0.3h-1V86z"/>
			<path class="st9" d="M133.5,89v-5.7h0.7V89H133.5z M134.2,87.2v-0.9l2.5-3h0.9L134.2,87.2z M136.7,89l-2-2.9l0.5-0.5l2.4,3.4
				H136.7z"/>
		</g>
	</g>
	<g class="st8">
		<g>
			<path class="st9" d="M64,137.1v-5.7h3.6v0.7h-3.2l0.4-0.3v2.6l-0.4-0.4h3.1v0.7h-3.1l0.4-0.4v2.8H64z"/>
			<path class="st9" d="M69,137.1v-5.7h1.7c0.6,0,1.1,0.2,1.4,0.5c0.3,0.3,0.5,0.7,0.5,1.3c0,0.3-0.1,0.5-0.2,0.7
				c-0.1,0.2-0.3,0.4-0.5,0.5c-0.2,0.1-0.4,0.2-0.6,0.2l0-0.1c0.4,0,0.7,0.1,0.9,0.3s0.3,0.4,0.3,0.8l0.1,1.6h-0.7l-0.1-1.6
				c0-0.2-0.1-0.3-0.1-0.4c-0.1-0.1-0.2-0.2-0.3-0.2c-0.1-0.1-0.3-0.1-0.6-0.1h-1.2v2.3H69z M69.7,134.1h1c0.4,0,0.7-0.1,0.9-0.3
				c0.2-0.2,0.3-0.4,0.3-0.8c0-0.3-0.1-0.6-0.3-0.8s-0.5-0.3-0.9-0.3h-1V134.1z"/>
			<path class="st9" d="M73.9,137.1l1.7-5.7h0.9l1.7,5.7h-0.7l-1.5-5.1l-1.5,5.1H73.9z M74.8,135.5l0.2-0.7h2.2l0.2,0.7H74.8z"/>
			<path class="st9" d="M81.4,137.3c-0.4,0-0.8-0.1-1.1-0.3c-0.3-0.2-0.6-0.6-0.7-1c-0.2-0.4-0.3-1-0.3-1.7c0-0.6,0.1-1.2,0.3-1.6
				c0.2-0.4,0.4-0.8,0.7-1c0.3-0.2,0.7-0.4,1.1-0.4c0.3,0,0.7,0.1,0.9,0.2c0.3,0.2,0.5,0.4,0.7,0.7c0.2,0.3,0.3,0.6,0.4,1l-0.7,0
				c-0.1-0.4-0.2-0.6-0.5-0.9c-0.2-0.2-0.5-0.3-0.8-0.3c-0.3,0-0.5,0.1-0.8,0.3c-0.2,0.2-0.4,0.4-0.5,0.8c-0.1,0.3-0.2,0.8-0.2,1.3
				c0,0.5,0.1,0.9,0.2,1.3c0.1,0.3,0.3,0.6,0.5,0.8c0.2,0.2,0.5,0.3,0.8,0.3c0.3,0,0.5-0.1,0.7-0.2c0.2-0.1,0.4-0.3,0.5-0.6
				c0.1-0.3,0.2-0.5,0.2-0.9h-1.4v-0.7h2v2.9h-0.6l0-1.4l0.2,0.1c-0.1,0.3-0.2,0.5-0.3,0.7c-0.1,0.2-0.3,0.4-0.5,0.5
				C81.9,137.2,81.7,137.3,81.4,137.3z"/>
			<path class="st9" d="M86.3,136.5l-1.1-4.4h0.1v5.1h-0.7v-5.7h1l1.1,4.7h-0.3l1.1-4.7h1v5.7h-0.7V132H88l-1.1,4.4H86.3z"/>
			<path class="st9" d="M90.2,137.1v-5.7h3.5v0.7h-2.8v1.8h2.7v0.7h-2.7v1.9h2.9v0.7H90.2z"/>
			<path class="st9" d="M95.3,137.1v-5.7h1l2,4.9v-4.9H99v5.7h-1l-2-4.9v4.9H95.3z"/>
			<path class="st9" d="M102,137.1v-5.1h-1.8v-0.7h4.2v0.7h-1.8v5.1H102z"/>
			<path class="st9" d="M105.9,137.1v-5.7h3.5v0.7h-2.8v1.8h2.7v0.7h-2.7v1.9h2.9v0.7H105.9z"/>
			<path class="st9" d="M111.2,137.1v-5.7h1.4c0.5,0,0.9,0.1,1.3,0.3c0.4,0.2,0.7,0.5,0.9,1c0.2,0.4,0.3,0.9,0.3,1.6
				s-0.1,1.1-0.3,1.6c-0.2,0.4-0.5,0.7-0.9,1s-0.8,0.3-1.3,0.3H111.2z M111.9,136.4h0.6c0.6,0,1-0.2,1.3-0.5
				c0.3-0.4,0.5-0.9,0.5-1.6s-0.2-1.3-0.5-1.6c-0.3-0.4-0.7-0.6-1.3-0.6h-0.6V136.4z"/>
			<path class="st9" d="M121.7,137.1v-5.7h1.4c0.5,0,0.9,0.1,1.3,0.3c0.4,0.2,0.7,0.5,0.9,1c0.2,0.4,0.3,0.9,0.3,1.6
				s-0.1,1.1-0.3,1.6c-0.2,0.4-0.5,0.7-0.9,1s-0.8,0.3-1.3,0.3H121.7z M122.3,136.4h0.6c0.6,0,1-0.2,1.3-0.5
				c0.3-0.4,0.5-0.9,0.5-1.6s-0.2-1.3-0.5-1.6c-0.3-0.4-0.7-0.6-1.3-0.6h-0.6V136.4z"/>
			<path class="st9" d="M126.4,137.1l1.7-5.7h0.9l1.7,5.7h-0.7l-1.5-5.1l-1.5,5.1H126.4z M127.3,135.5l0.2-0.7h2.2l0.2,0.7H127.3z"
				/>
			<path class="st9" d="M133.5,137.1v-5.1h-1.8v-0.7h4.2v0.7h-1.8v5.1H133.5z"/>
			<path class="st9" d="M136.9,137.1l1.7-5.7h0.9l1.7,5.7h-0.7l-1.5-5.1l-1.5,5.1H136.9z M137.8,135.5l0.2-0.7h2.2l0.2,0.7H137.8z"
				/>
		</g>
	</g>
	<g>
		<circle class="st7" cx="154.9" cy="38.9" r="10.6"/>
		<circle class="st10" cx="154.9" cy="38.9" r="3.3"/>
		<path class="st11" d="M143.8,28.8h8.1 M143.8,28.8v8.1 M166,28.8H158 M166,28.8v8.1 M143.8,49h8.1 M143.8,49v-8.1 M166,49H158
			 M166,49v-8.1"/>
	</g>
	<g>
		<circle class="st7" cx="311.5" cy="143.7" r="10.6"/>
		<circle class="st10" cx="311.5" cy="143.7" r="3.3"/>
		<path class="st11" d="M300.4,133.6h8.1 M300.4,133.6v8.1 M322.6,133.6h-8.1 M322.6,133.6v8.1 M300.4,153.8h8.1 M300.4,153.8v-8.1
			 M322.6,153.8h-8.1 M322.6,153.8v-8.1"/>
	</g>
	<g>
		<circle class="st7" cx="327.6" cy="39.3" r="10.6"/>
		<circle class="st10" cx="327.6" cy="39.3" r="3.3"/>
		<path class="st11" d="M316.5,29.2h8.1 M316.5,29.2v8.1 M338.7,29.2h-8.1 M338.7,29.2v8.1 M316.5,49.4h8.1 M316.5,49.4v-8.1
			 M338.7,49.4h-8.1 M338.7,49.4v-8.1"/>
	</g>
	<g>
		<circle class="st7" cx="154.9" cy="86" r="9.6"/>
		<circle class="st10" cx="154.9" cy="86" r="3.1"/>
		<path class="st11" d="M144.8,76.9h7.1 M144.8,76.9V84 M165,76.9H158 M165,76.9V84 M144.8,95.1h7.1 M144.8,95.1V88 M165,95.1H158
			 M165,95.1V88"/>
	</g>
	<g>
		<circle class="st7" cx="158.1" cy="133.1" r="10.1"/>
		<circle class="st10" cx="158.1" cy="133.1" r="3.2"/>
		<path class="st11" d="M148,124h7.1 M148,124v7.1 M168.1,124h-7.1 M168.1,124v7.1 M148,142.2h7.1 M148,142.2v-7.1 M168.1,142.2
			h-7.1 M168.1,142.2v-7.1"/>
	</g>
	<polyline class="st12" points="245.3,119.9 232.1,133.1 161.2,133.1 	"/>
	<polyline class="st12" points="245.3,52.1 232.1,38.9 158,38.9 	"/>
	<line class="st12" x1="231.3" y1="86" x2="158.1" y2="86"/>
</g>
</svg>
