<svg xmlns:xlink="http://www.w3.org/1999/xlink" xmlns="http://www.w3.org/2000/svg" width="144" height="78" viewBox="0 0 144 78"><path d="M 13 67.99999999999999 A 59 59 0 0 1 20.699799159192082 38.85742987153037" stroke="#EA3943" stroke-width="6px" stroke-linecap="round" fill="none"></path><path d="M 25.25491104204376 32.001435329825206 A 59 59 0 0 1 49.136580399325936 13.610074056278464" stroke="#EA8C00" stroke-width="6px" stroke-linecap="round" fill="none"></path><path d="M 56.928700281788366 10.957420072336895 A 59 59 0 0 1 87.07129971821165 10.957420072336895" stroke="#F3D42F" stroke-width="6px" stroke-linecap="round" fill="none"></path><path d="M 94.86341960067408 13.61007405627847 A 59 59 0 0 1 118.74508895795626 32.00143532982522" stroke="#93D900" stroke-width="6px" stroke-linecap="round" fill="none"></path><path d="M 123.30020084080792 38.85742987153038 A 59 59 0 0 1 131 68" stroke="#16C784" stroke-width="6px" stroke-linecap="round" fill="none"></path><path d="M 13 67.99999999999999 A 59 59 0 0 1 20.699799159192082 38.85742987153037" stroke="none" stroke-width="6px" stroke-linecap="round" fill="none"></path><path d="M 25.25491104204376 32.001435329825206 A 59 59 0 0 1 45.21456051536674 15.430615072886297" stroke="none" stroke-width="6px" stroke-linecap="round" fill="none"></path><circle cx="45.21456051536674" cy="15.430615072886297" r="7" fill="none" stroke="#222531" stroke-width="4px"></circle><circle cx="45.21456051536674" cy="15.430615072886297" r="5" fill="#FFFFFF"></circle></svg>