<svg xmlns:xlink="http://www.w3.org/1999/xlink" xmlns="http://www.w3.org/2000/svg" viewBox="0 0 364 164" class="w-full h-full absolute inset-0" width="364" height="164"><defs><radialGradient id="topGlow" cx="50%" cy="50%" r="50%"><stop offset="0%" stop-color="rgba(74, 222, 128, 0.35)"></stop><stop offset="100%" stop-color="rgba(74, 222, 128, 0.05)"></stop></radialGradient><radialGradient id="bgGlow" cx="50%" cy="50%" r="50%"><stop offset="0%" stop-color="rgba(74, 222, 128, 0.15)"></stop><stop offset="100%" stop-color="rgba(5, 11, 8, 0)"></stop></radialGradient><pattern id="bgGrid" width="20" height="20" patternUnits="userSpaceOnUse"><line x1="20" y1="0" x2="20" y2="20" stroke="rgba(74, 222, 128, 0.04)" stroke-width="0.5"></line><line x1="0" y1="20" x2="20" y2="20" stroke="rgba(74, 222, 128, 0.04)" stroke-width="0.5"></line></pattern><pattern id="bgGrid" width="20" height="20" patternUnits="userSpaceOnUse"><line x1="20" y1="0" x2="20" y2="20" stroke="rgba(74, 222, 128, 0.04)" stroke-width="0.5"></line><line x1="0" y1="20" x2="20" y2="20" stroke="rgba(74, 222, 128, 0.04)" stroke-width="0.5"></line></pattern><radialGradient id="bgGlow" cx="50%" cy="50%" r="50%"><stop offset="0%" stop-color="rgba(74, 222, 128, 0.15)"></stop><stop offset="100%" stop-color="rgba(5, 11, 8, 0)"></stop></radialGradient><radialGradient id="topGlow" cx="50%" cy="50%" r="50%"><stop offset="0%" stop-color="rgba(74, 222, 128, 0.35)"></stop><stop offset="100%" stop-color="rgba(74, 222, 128, 0.05)"></stop></radialGradient><radialGradient id="topGlow" cx="50%" cy="50%" r="50%"><stop offset="0%" stop-color="rgba(74, 222, 128, 0.35)"></stop><stop offset="100%" stop-color="rgba(74, 222, 128, 0.05)"></stop></radialGradient><radialGradient id="topGlow" cx="50%" cy="50%" r="50%"><stop offset="0%" stop-color="rgba(74, 222, 128, 0.35)"></stop><stop offset="100%" stop-color="rgba(74, 222, 128, 0.05)"></stop></radialGradient><radialGradient id="topGlow" cx="50%" cy="50%" r="50%"><stop offset="0%" stop-color="rgba(74, 222, 128, 0.35)"></stop><stop offset="100%" stop-color="rgba(74, 222, 128, 0.05)"></stop></radialGradient></defs><rect width="364" height="164" fill="url(&quot;#bgGrid&quot;)"></rect><ellipse cx="182" cy="82" rx="140" ry="70" fill="url(&quot;#bgGlow&quot;)"></ellipse><g id="layer-floor"><g><polygon points="182,82 262,122 182,162 102,122" fill="none" stroke="#4ADE80" stroke-width="0.5px" stroke-opacity="0.4"></polygon><line x1="190" y1="86" x2="110" y2="126" stroke="#4ADE80" stroke-width="0.5px" opacity="0.5" stroke-opacity="0.4"></line><line x1="174" y1="86" x2="254" y2="126" stroke="#4ADE80" stroke-width="0.5px" opacity="0.5" stroke-opacity="0.4"></line><line x1="198" y1="90" x2="118" y2="130" stroke="#4ADE80" stroke-width="0.5px" opacity="0.5" stroke-opacity="0.4"></line><line x1="166" y1="90" x2="246" y2="130" stroke="#4ADE80" stroke-width="0.5px" opacity="0.5" stroke-opacity="0.4"></line><line x1="206" y1="94" x2="126" y2="134" stroke="#4ADE80" stroke-width="0.5px" opacity="0.5" stroke-opacity="0.4"></line><line x1="158" y1="94" x2="238" y2="134" stroke="#4ADE80" stroke-width="0.5px" opacity="0.5" stroke-opacity="0.4"></line><line x1="214" y1="98" x2="134" y2="138" stroke="#4ADE80" stroke-width="0.5px" opacity="0.5" stroke-opacity="0.4"></line><line x1="150" y1="98" x2="230" y2="138" stroke="#4ADE80" stroke-width="0.5px" opacity="0.5" stroke-opacity="0.4"></line><line x1="222" y1="102" x2="142" y2="142" stroke="#4ADE80" stroke-width="0.5px" opacity="0.5" stroke-opacity="0.4"></line><line x1="142" y1="102" x2="222" y2="142" stroke="#4ADE80" stroke-width="0.5px" opacity="0.5" stroke-opacity="0.4"></line><line x1="230" y1="106" x2="150" y2="146" stroke="#4ADE80" stroke-width="0.5px" opacity="0.5" stroke-opacity="0.4"></line><line x1="134" y1="106" x2="214" y2="146" stroke="#4ADE80" stroke-width="0.5px" opacity="0.5" stroke-opacity="0.4"></line><line x1="238" y1="110" x2="158" y2="150" stroke="#4ADE80" stroke-width="0.5px" opacity="0.5" stroke-opacity="0.4"></line><line x1="126" y1="110" x2="206" y2="150" stroke="#4ADE80" stroke-width="0.5px" opacity="0.5" stroke-opacity="0.4"></line><line x1="246" y1="114" x2="166" y2="154" stroke="#4ADE80" stroke-width="0.5px" opacity="0.5" stroke-opacity="0.4"></line><line x1="118" y1="114" x2="198" y2="154" stroke="#4ADE80" stroke-width="0.5px" opacity="0.5" stroke-opacity="0.4"></line><line x1="254" y1="118" x2="174" y2="158" stroke="#4ADE80" stroke-width="0.5px" opacity="0.5" stroke-opacity="0.4"></line><line x1="110" y1="118" x2="190" y2="158" stroke="#4ADE80" stroke-width="0.5px" opacity="0.5" stroke-opacity="0.4"></line></g></g><g><polygon points="182,130 122,100 122,106 182,136" fill="#082012" stroke="#4ADE80" stroke-width="0.5px" stroke-opacity="0.6"></polygon><polygon points="242,100 182,130 182,136 242,106" fill="#0C2D19" stroke="#4ADE80" stroke-width="0.5px" stroke-opacity="0.6"></polygon><polygon points="182,70 242,100 182,130 122,100" fill="url(&quot;#topGlow&quot;)" stroke="#4ADE80" stroke-width="1" stroke-opacity="0.9"></polygon><line x1="194" y1="76" x2="134" y2="106" stroke="#4ADE80" stroke-width="0.5px" opacity="0.25" stroke-opacity="0.9"></line><line x1="170" y1="76" x2="230" y2="106" stroke="#4ADE80" stroke-width="0.5px" opacity="0.25" stroke-opacity="0.9"></line><line x1="206" y1="82" x2="146" y2="112" stroke="#4ADE80" stroke-width="0.5px" opacity="0.25" stroke-opacity="0.9"></line><line x1="158" y1="82" x2="218" y2="112" stroke="#4ADE80" stroke-width="0.5px" opacity="0.25" stroke-opacity="0.9"></line><line x1="218" y1="88" x2="158" y2="118" stroke="#4ADE80" stroke-width="0.5px" opacity="0.25" stroke-opacity="0.9"></line><line x1="146" y1="88" x2="206" y2="118" stroke="#4ADE80" stroke-width="0.5px" opacity="0.25" stroke-opacity="0.9"></line><line x1="230" y1="94" x2="170" y2="124" stroke="#4ADE80" stroke-width="0.5px" opacity="0.25" stroke-opacity="0.9"></line><line x1="134" y1="94" x2="194" y2="124" stroke="#4ADE80" stroke-width="0.5px" opacity="0.25" stroke-opacity="0.9"></line><circle cx="182" cy="70" r="1" fill="#FFFFFF" opacity="0.6"></circle><circle cx="182" cy="130" r="1" fill="#FFFFFF" opacity="0.6"></circle><circle cx="122" cy="100" r="1" fill="#FFFFFF" opacity="0.6"></circle></g><g><polygon points="182,110 122,80 122,86 182,116" fill="#082012" stroke="#4ADE80" stroke-width="0.5px" stroke-opacity="0.6"></polygon><polygon points="242,80 182,110 182,116 242,86" fill="#0C2D19" stroke="#4ADE80" stroke-width="0.5px" stroke-opacity="0.6"></polygon><polygon points="182,50 242,80 182,110 122,80" fill="url(&quot;#topGlow&quot;)" stroke="#4ADE80" stroke-width="1" stroke-opacity="0.9"></polygon><line x1="194" y1="56" x2="134" y2="86" stroke="#4ADE80" stroke-width="0.5px" opacity="0.25" stroke-opacity="0.9"></line><line x1="170" y1="56" x2="230" y2="86" stroke="#4ADE80" stroke-width="0.5px" opacity="0.25" stroke-opacity="0.9"></line><line x1="206" y1="62" x2="146" y2="92" stroke="#4ADE80" stroke-width="0.5px" opacity="0.25" stroke-opacity="0.9"></line><line x1="158" y1="62" x2="218" y2="92" stroke="#4ADE80" stroke-width="0.5px" opacity="0.25" stroke-opacity="0.9"></line><line x1="218" y1="68" x2="158" y2="98" stroke="#4ADE80" stroke-width="0.5px" opacity="0.25" stroke-opacity="0.9"></line><line x1="146" y1="68" x2="206" y2="98" stroke="#4ADE80" stroke-width="0.5px" opacity="0.25" stroke-opacity="0.9"></line><line x1="230" y1="74" x2="170" y2="104" stroke="#4ADE80" stroke-width="0.5px" opacity="0.25" stroke-opacity="0.9"></line><line x1="134" y1="74" x2="194" y2="104" stroke="#4ADE80" stroke-width="0.5px" opacity="0.25" stroke-opacity="0.9"></line><circle cx="182" cy="50" r="1" fill="#FFFFFF" opacity="0.6"></circle><circle cx="182" cy="110" r="1" fill="#FFFFFF" opacity="0.6"></circle><circle cx="122" cy="80" r="1" fill="#FFFFFF" opacity="0.6"></circle></g><g><polygon points="182,90 122,60 122,66 182,96" fill="#082012" stroke="#4ADE80" stroke-width="0.5px" stroke-opacity="0.6"></polygon><polygon points="242,60 182,90 182,96 242,66" fill="#0C2D19" stroke="#4ADE80" stroke-width="0.5px" stroke-opacity="0.6"></polygon><polygon points="182,30 242,60 182,90 122,60" fill="url(&quot;#topGlow&quot;)" stroke="#4ADE80" stroke-width="1" stroke-opacity="0.9"></polygon><line x1="194" y1="36" x2="134" y2="66" stroke="#4ADE80" stroke-width="0.5px" opacity="0.25" stroke-opacity="0.9"></line><line x1="170" y1="36" x2="230" y2="66" stroke="#4ADE80" stroke-width="0.5px" opacity="0.25" stroke-opacity="0.9"></line><line x1="206" y1="42" x2="146" y2="72" stroke="#4ADE80" stroke-width="0.5px" opacity="0.25" stroke-opacity="0.9"></line><line x1="158" y1="42" x2="218" y2="72" stroke="#4ADE80" stroke-width="0.5px" opacity="0.25" stroke-opacity="0.9"></line><line x1="218" y1="48" x2="158" y2="78" stroke="#4ADE80" stroke-width="0.5px" opacity="0.25" stroke-opacity="0.9"></line><line x1="146" y1="48" x2="206" y2="78" stroke="#4ADE80" stroke-width="0.5px" opacity="0.25" stroke-opacity="0.9"></line><line x1="230" y1="54" x2="170" y2="84" stroke="#4ADE80" stroke-width="0.5px" opacity="0.25" stroke-opacity="0.9"></line><line x1="134" y1="54" x2="194" y2="84" stroke="#4ADE80" stroke-width="0.5px" opacity="0.25" stroke-opacity="0.9"></line><circle cx="182" cy="30" r="1" fill="#FFFFFF" opacity="0.6"></circle><circle cx="182" cy="90" r="1" fill="#FFFFFF" opacity="0.6"></circle><circle cx="122" cy="60" r="1" fill="#FFFFFF" opacity="0.6"></circle></g><g><polygon points="182,70 122,40 122,46 182,76" fill="#082012" stroke="#4ADE80" stroke-width="0.5px" stroke-opacity="0.6"></polygon><polygon points="242,40 182,70 182,76 242,46" fill="#0C2D19" stroke="#4ADE80" stroke-width="0.5px" stroke-opacity="0.6"></polygon><polygon points="182,10 242,40 182,70 122,40" fill="url(&quot;#topGlow&quot;)" stroke="#4ADE80" stroke-width="1" stroke-opacity="0.9"></polygon><line x1="194" y1="16" x2="134" y2="46" stroke="#4ADE80" stroke-width="0.5px" opacity="0.25" stroke-opacity="0.9"></line><line x1="170" y1="16" x2="230" y2="46" stroke="#4ADE80" stroke-width="0.5px" opacity="0.25" stroke-opacity="0.9"></line><line x1="206" y1="22" x2="146" y2="52" stroke="#4ADE80" stroke-width="0.5px" opacity="0.25" stroke-opacity="0.9"></line><line x1="158" y1="22" x2="218" y2="52" stroke="#4ADE80" stroke-width="0.5px" opacity="0.25" stroke-opacity="0.9"></line><line x1="218" y1="28" x2="158" y2="58" stroke="#4ADE80" stroke-width="0.5px" opacity="0.25" stroke-opacity="0.9"></line><line x1="146" y1="28" x2="206" y2="58" stroke="#4ADE80" stroke-width="0.5px" opacity="0.25" stroke-opacity="0.9"></line><line x1="230" y1="34" x2="170" y2="64" stroke="#4ADE80" stroke-width="0.5px" opacity="0.25" stroke-opacity="0.9"></line><line x1="134" y1="34" x2="194" y2="64" stroke="#4ADE80" stroke-width="0.5px" opacity="0.25" stroke-opacity="0.9"></line><circle cx="182" cy="10" r="1" fill="#FFFFFF" opacity="0.6"></circle><circle cx="182" cy="70" r="1" fill="#FFFFFF" opacity="0.6"></circle><circle cx="122" cy="40" r="1" fill="#FFFFFF" opacity="0.6"></circle></g><g><path d="M 82 28 L 108 28 L 122 40" fill="none" stroke="#4ADE80" stroke-width="1" stroke-opacity="0.4"></path><circle cx="108" cy="28" r="1" fill="#4ADE80"></circle><circle cx="122" cy="40" r="1.2" fill="#4ADE80"></circle><path d="M 272 28 L 255 28 L 242 40" fill="none" stroke="#4ADE80" stroke-width="1" stroke-opacity="0.4"></path><circle cx="255" cy="28" r="1" fill="#4ADE80"></circle><circle cx="242" cy="40" r="1.2" fill="#4ADE80"></circle><circle cx="14" cy="28" r="1.5" fill="#4ADE80"></circle></g><g><path d="M 95 55 L 108 55 L 122 60" fill="none" stroke="#4ADE80" stroke-width="1" stroke-opacity="0.4"></path><circle cx="108" cy="55" r="1" fill="#4ADE80"></circle><circle cx="122" cy="60" r="1.2" fill="#4ADE80"></circle><path d="M 272 55 L 255 55 L 242 60" fill="none" stroke="#4ADE80" stroke-width="1" stroke-opacity="0.4"></path><circle cx="255" cy="55" r="1" fill="#4ADE80"></circle><circle cx="242" cy="60" r="1.2" fill="#4ADE80"></circle><circle cx="14" cy="55" r="1.5" fill="#4ADE80"></circle></g><g><path d="M 70 82 L 108 82 L 122 80" fill="none" stroke="#4ADE80" stroke-width="1" stroke-opacity="0.4"></path><circle cx="108" cy="82" r="1" fill="#4ADE80"></circle><circle cx="122" cy="80" r="1.2" fill="#4ADE80"></circle><path d="M 272 82 L 255 82 L 242 80" fill="none" stroke="#4ADE80" stroke-width="1" stroke-opacity="0.4"></path><circle cx="255" cy="82" r="1" fill="#4ADE80"></circle><circle cx="242" cy="80" r="1.2" fill="#4ADE80"></circle><circle cx="14" cy="82" r="1.5" fill="#4ADE80"></circle></g><g><path d="M 66 109 L 108 109 L 122 100" fill="none" stroke="#4ADE80" stroke-width="1" stroke-opacity="0.4"></path><circle cx="108" cy="109" r="1" fill="#4ADE80"></circle><circle cx="122" cy="100" r="1.2" fill="#4ADE80"></circle><path d="M 272 109 L 255 109 L 242 100" fill="none" stroke="#4ADE80" stroke-width="1" stroke-opacity="0.4"></path><circle cx="255" cy="109" r="1" fill="#4ADE80"></circle><circle cx="242" cy="100" r="1.2" fill="#4ADE80"></circle><circle cx="14" cy="109" r="1.5" fill="#4ADE80"></circle></g><g><path d="M 85 136 L 94 136 L 102 122" fill="none" stroke="#4ADE80" stroke-width="1" stroke-opacity="0.4"></path><circle cx="94" cy="136" r="1" fill="#4ADE80"></circle><circle cx="102" cy="122" r="1.2" fill="#4ADE80"></circle><path d="M 272 136 L 265 136 L 262 122" fill="none" stroke="#4ADE80" stroke-width="1" stroke-opacity="0.4"></path><circle cx="265" cy="136" r="1" fill="#4ADE80"></circle><circle cx="262" cy="122" r="1.2" fill="#4ADE80"></circle><circle cx="14" cy="136" r="1.5" fill="#4ADE80"></circle></g><text x="22" y="28" fill="#86EFAC" font-size="6.5" opacity="0.85" dominant-baseline="middle" style="letter-spacing: 0.05em;">INTERFACE LAYER</text><text x="22" y="55" fill="#86EFAC" font-size="6.5" opacity="0.85" dominant-baseline="middle" style="letter-spacing: 0.05em;">AI WORKFLOW LAYER</text><text x="22" y="82" fill="#86EFAC" font-size="6.5" opacity="0.85" dominant-baseline="middle" style="letter-spacing: 0.05em;">SYSTEM CORE</text><text x="22" y="109" fill="#86EFAC" font-size="6.5" opacity="0.85" dominant-baseline="middle" style="letter-spacing: 0.05em;">DATA LAYER</text><text x="22" y="136" fill="#86EFAC" font-size="6.5" opacity="0.85" dominant-baseline="middle" style="letter-spacing: 0.05em;">INFRASTRUCTURE</text><g><rect x="272" y="21" width="78" height="14" rx="2" fill="#020604" stroke="#4ADE80" stroke-width="0.8px" stroke-opacity="0.3"></rect><text x="311" y="28.5" fill="#86EFAC" font-size="6.5" opacity="0.85" text-anchor="middle" dominant-baseline="middle" style="letter-spacing: 0.05em;">BRAND / MESSAGE</text></g><g><rect x="272" y="48" width="78" height="14" rx="2" fill="#020604" stroke="#4ADE80" stroke-width="0.8px" stroke-opacity="0.3"></rect><text x="311" y="55.5" fill="#86EFAC" font-size="6.5" opacity="0.85" text-anchor="middle" dominant-baseline="middle" style="letter-spacing: 0.05em;">INTEGRATIONS</text></g><g><rect x="272" y="75" width="78" height="14" rx="2" fill="#020604" stroke="#4ADE80" stroke-width="0.8px" stroke-opacity="0.3"></rect><text x="311" y="82.5" fill="#86EFAC" font-size="6.5" opacity="0.85" text-anchor="middle" dominant-baseline="middle" style="letter-spacing: 0.05em;">AUTOMATIONS</text></g><g><rect x="272" y="102" width="78" height="14" rx="2" fill="#020604" stroke="#4ADE80" stroke-width="0.8px" stroke-opacity="0.3"></rect><text x="311" y="109.5" fill="#86EFAC" font-size="6.5" opacity="0.85" text-anchor="middle" dominant-baseline="middle" style="letter-spacing: 0.05em;">DEPLOYMENT</text></g><g><rect x="272" y="129" width="78" height="14" rx="2" fill="#020604" stroke="#4ADE80" stroke-width="0.8px" stroke-opacity="0.3"></rect><text x="311" y="136.5" fill="#86EFAC" font-size="6.5" opacity="0.85" text-anchor="middle" dominant-baseline="middle" style="letter-spacing: 0.05em;">SUPPORT</text></g></svg>