<?xml version="1.0" encoding="utf-8"?>
<!-- Generator: Adobe Illustrator 27.7.0, SVG Export Plug-In . SVG Version: 6.00 Build 0)  -->
<svg version="1.1" id="Layer_1" xmlns="http://www.w3.org/2000/svg" xmlns:xlink="http://www.w3.org/1999/xlink" x="0px" y="0px"
	 viewBox="0 0 64 64" style="enable-background:new 0 0 64 64;" xml:space="preserve">
<style type="text/css">
	.st0{fill:#34D399;}
</style>
<path class="st0" d="M50,25.1c0.2-1.1,0.3-2.3,0.3-3.5c0-10.1-8.2-18.4-18.4-18.4s-18.4,8.2-18.4,18.4c0,1.2,0.1,2.4,0.3,3.5
	C7,27.8,2,34.5,2,42.3c0,10.1,8.2,18.4,18.4,18.4c4.4,0,8.5-1.6,11.6-4.2c3.2,2.6,7.2,4.2,11.6,4.2c10.1,0,18.4-8.2,18.4-18.4
	C62,34.5,57,27.7,50,25.1L50,25.1z M15.5,21.7c0-9.1,7.4-16.5,16.5-16.5c9.1,0,16.5,7.4,16.5,16.5c0,1-0.1,2-0.3,2.9
	c-1.5-0.4-3-0.6-4.6-0.6c-4.4,0-8.5,1.6-11.6,4.2c-3.2-2.6-7.2-4.2-11.6-4.2c-1.6,0-3.1,0.2-4.6,0.6C15.6,23.6,15.5,22.6,15.5,21.7
	L15.5,21.7z M36.8,42.4C36.8,46.9,35,51,32,54c-3-3-4.8-7.1-4.8-11.6c0-1,0.1-2,0.3-2.9c1.5,0.4,3,0.6,4.6,0.6
	c1.6,0,3.1-0.2,4.6-0.6C36.7,40.4,36.8,41.4,36.8,42.4L36.8,42.4z M32,38.1c-1.4,0-2.8-0.2-4.1-0.5c0.8-2.6,2.2-5,4.1-6.9
	c1.9,1.9,3.3,4.2,4.1,6.9C34.8,37.9,33.4,38.1,32,38.1z M26.1,37c-4.7-1.8-8.3-5.7-9.8-10.6c1.3-0.3,2.7-0.5,4.1-0.5
	c3.8,0,7.4,1.3,10.2,3.6C28.5,31.5,26.9,34.1,26.1,37L26.1,37z M33.4,29.4c2.8-2.2,6.3-3.6,10.2-3.6c1.4,0,2.8,0.2,4.1,0.5
	c-1.5,4.8-5.1,8.8-9.8,10.6C37.1,34.1,35.5,31.5,33.4,29.4L33.4,29.4z M3.9,42.4c0-7,4.4-13,10.5-15.3c1.7,5.5,5.8,9.9,11.2,11.8
	c-0.2,1.1-0.3,2.3-0.3,3.5c0,5,2,9.6,5.3,12.9c-2.8,2.2-6.3,3.6-10.2,3.6C11.3,58.8,3.9,51.4,3.9,42.4L3.9,42.4z M43.6,58.8
	c-3.8,0-7.4-1.3-10.2-3.6c3.3-3.3,5.3-7.9,5.3-12.9c0-1.2-0.1-2.4-0.3-3.5c5.3-2,9.5-6.4,11.2-11.8c6.1,2.4,10.5,8.4,10.5,15.3
	C60.1,51.4,52.7,58.8,43.6,58.8L43.6,58.8z"/>
</svg>
