<?xml version="1.0" encoding="utf-8"?>
<!-- Generator: Adobe Illustrator 27.7.0, SVG Export Plug-In . SVG Version: 6.00 Build 0)  -->
<svg version="1.1" id="Layer_1" focusable="false" xmlns="http://www.w3.org/2000/svg" xmlns:xlink="http://www.w3.org/1999/xlink"
	 x="0px" y="0px" viewBox="0 0 440 172" style="enable-background:new 0 0 440 172;" xml:space="preserve">
<style type="text/css">
	.st0{opacity:0.38;}
	.st1{fill:none;stroke:#A7F3D0;}
	.st2{opacity:0.82;fill:#34D399;}
	.st3{opacity:3.500000e-02;fill:#10B981;}
	.st4{opacity:0.2;fill:none;stroke:#6EE7B7;}
	.st5{opacity:0.24;}
	.st6{fill:none;stroke:#6EE7B7;}
	.st7{fill:#D1FAE5;}
	.st8{opacity:5.500000e-02;fill:#10B981;}
	.st9{opacity:0.28;fill:none;stroke:#A7F3D0;}
	.st10{opacity:0.24;fill:none;stroke:#6EE7B7;}
	.st11{opacity:0.38;fill:none;stroke:#A7F3D0;}
	.st12{fill:none;stroke:#6EE7B7;stroke-dasharray:4.971,4.971;}
	.st13{opacity:0.34;fill:none;stroke:#6EE7B7;}
	.st14{opacity:0.14;fill:#10B981;}
	.st15{opacity:0.62;fill:none;stroke:#A7F3D0;}
	.st16{opacity:0.5;fill:none;stroke:#34D399;}
	.st17{opacity:8.000000e-02;fill:#34D399;}
	.st18{opacity:0.18;fill:none;stroke:#34D399;}
	.st19{opacity:0.26;fill:none;stroke:#A7F3D0;}
	.st20{opacity:0.26;}
	.st21{fill:none;stroke:#A7F3D0;stroke-dasharray:5.9301,5.9301;}
	.st22{fill:none;stroke:#A7F3D0;stroke-dasharray:4.2215,4.2215;}
	.st23{opacity:0.24;fill:none;stroke:#6EE7B7;stroke-dasharray:5;}
	.st24{fill:#10B981;stroke:#A7F3D0;}
</style>
<g class="st0">
	<path class="st1" d="M120,24.4h50 M270,24.4h48"/>
</g>
<g class="st0">
	<path class="st1" d="M127.7,93.4h59.2 M253.1,93.4h59.2"/>
</g>
<circle class="st2" cx="127.7" cy="93.4" r="2.2"/>
<circle class="st2" cx="186.9" cy="93.4" r="2.2"/>
<circle class="st2" cx="253.1" cy="93.4" r="2.2"/>
<circle class="st2" cx="312.3" cy="93.4" r="2.2"/>
<g>
	<rect x="24" y="8.4" class="st3" width="96" height="32"/>
	<rect x="24" y="8.4" class="st4" width="96" height="32"/>
</g>
<g class="st5">
	<path class="st6" d="M41.9,17.4h15v10h-15V17.4z M45.9,31.4h7"/>
</g>
<g>
	<path class="st7" d="M68.3,27c-0.6,0-1.1-0.2-1.4-0.6c-0.3-0.4-0.5-0.9-0.5-1.5v-3.7h0.7v3.7c0,0.5,0.1,0.8,0.3,1.1
		c0.2,0.2,0.5,0.4,0.9,0.4s0.7-0.1,0.9-0.4c0.2-0.2,0.3-0.6,0.3-1.1v-3.7h0.7v3.7c0,0.7-0.2,1.2-0.5,1.5C69.4,26.8,68.9,27,68.3,27z
		"/>
	<path class="st7" d="M71.7,26.9v-0.7h1.4v-4.3h-1.4v-0.7h3.5v0.7h-1.4v4.3h1.4v0.7H71.7z"/>
	<path class="st7" d="M82.3,27.7l2.4-6.9h0.6l-2.4,6.9H82.3z"/>
	<path class="st7" d="M94.1,27c-0.6,0-1.1-0.2-1.4-0.6c-0.3-0.4-0.5-0.9-0.5-1.5v-3.7h0.7v3.7c0,0.5,0.1,0.8,0.3,1.1
		c0.2,0.2,0.5,0.4,0.9,0.4s0.7-0.1,0.9-0.4c0.2-0.2,0.3-0.6,0.3-1.1v-3.7H96v3.7c0,0.7-0.2,1.2-0.5,1.5C95.2,26.8,94.7,27,94.1,27z"
		/>
	<path class="st7" d="M97.3,26.9l1.6-2.9l-1.5-2.8h0.8l1.2,2.3l1.2-2.3h0.8L99.7,24l1.6,2.8h-0.8l-1.2-2.3l-1.2,2.3H97.3z"/>
</g>
<g>
	<rect x="170" y="8.4" class="st8" width="100" height="32"/>
	<rect x="170" y="8.4" class="st9" width="100" height="32"/>
</g>
<g class="st0">
	<path class="st1" d="M185.3,20.4l-5,4l5,4 M199.3,20.4l5,4l-5,4 M193.3,19.4l-3,10"/>
</g>
<g>
	<path class="st7" d="M213.5,26.9l1.7-5.7h0.9l1.7,5.7h-0.7l-1.4-5.1l-1.4,5.1H213.5z M214.3,25.3l0.2-0.7h2.1l0.2,0.7H214.3z"/>
	<path class="st7" d="M219.2,26.9v-5.7h1.7c0.4,0,0.7,0.1,1,0.2s0.5,0.3,0.7,0.6c0.2,0.3,0.2,0.6,0.2,0.9c0,0.4-0.1,0.7-0.2,0.9
		c-0.2,0.3-0.4,0.5-0.7,0.6s-0.6,0.2-1,0.2h-1v2.2H219.2z M219.8,24h1c0.4,0,0.8-0.1,1-0.3c0.2-0.2,0.3-0.4,0.3-0.8
		c0-0.3-0.1-0.6-0.3-0.8c-0.2-0.2-0.5-0.3-1-0.3h-1V24z"/>
	<path class="st7" d="M224.2,26.9v-0.7h1.4v-4.3h-1.4v-0.7h3.5v0.7h-1.4v4.3h1.4v0.7H224.2z"/>
	<path class="st7" d="M234.7,26.9v-5.7h0.7v5.4l-0.3-0.4h3.2v0.7H234.7z"/>
	<path class="st7" d="M239.3,26.9l1.7-5.7h0.9l1.7,5.7h-0.7l-1.4-5.1l-1.4,5.1H239.3z M240.2,25.3l0.2-0.7h2.1l0.2,0.7H240.2z"/>
	<path class="st7" d="M246.3,26.9v-2.3l-1.7-3.4h0.8l1.3,2.7l1.3-2.7h0.8l-1.7,3.4v2.3H246.3z"/>
	<path class="st7" d="M250.1,26.9v-5.7h3.4v0.7h-2.7v1.8h2.7v0.7h-2.7v1.8h2.8v0.7H250.1z"/>
	<path class="st7" d="M255.1,26.9v-5.7h1.7c0.6,0,1.1,0.2,1.4,0.5c0.3,0.3,0.5,0.7,0.5,1.2c0,0.3-0.1,0.5-0.2,0.7
		c-0.1,0.2-0.3,0.4-0.5,0.5c-0.2,0.1-0.4,0.2-0.6,0.2l0-0.1c0.4,0,0.7,0.1,0.8,0.3c0.2,0.2,0.3,0.4,0.3,0.8l0.1,1.6h-0.7l-0.1-1.5
		c0-0.2-0.1-0.3-0.1-0.4c-0.1-0.1-0.2-0.2-0.3-0.2c-0.1-0.1-0.3-0.1-0.6-0.1h-1.2v2.3H255.1z M255.8,23.9h1c0.4,0,0.7-0.1,0.9-0.3
		c0.2-0.2,0.3-0.4,0.3-0.8c0-0.3-0.1-0.6-0.3-0.8c-0.2-0.2-0.5-0.3-0.9-0.3h-1V23.9z"/>
</g>
<g>
	<rect x="318" y="8.4" class="st3" width="98" height="32"/>
	<rect x="318" y="8.4" class="st4" width="98" height="32"/>
</g>
<polygon class="st10" points="329,20.9 329,16.9 336,16.9 336,20.9 340,20.9 340,27.9 336,27.9 336,31.9 329,31.9 329,27.9 
	325,27.9 325,20.9 "/>
<g>
	<path class="st7" d="M347.7,26.9v-0.7h1.4v-4.3h-1.4v-0.7h3.5v0.7h-1.4v4.3h1.4v0.7H347.7z"/>
	<path class="st7" d="M352.7,26.9v-5.7h1l2,4.9v-4.9h0.7v5.7h-1l-2-4.9v4.9H352.7z"/>
	<path class="st7" d="M359.4,26.9v-5h-1.7v-0.7h4.1v0.7h-1.7v5H359.4z"/>
	<path class="st7" d="M363.2,26.9v-5.7h3.4v0.7h-2.7v1.8h2.7v0.7h-2.7v1.8h2.8v0.7H363.2z"/>
	<path class="st7" d="M370,27c-0.4,0-0.8-0.1-1.1-0.3c-0.3-0.2-0.6-0.6-0.7-1c-0.2-0.4-0.3-1-0.3-1.6c0-0.6,0.1-1.1,0.2-1.6
		s0.4-0.8,0.7-1c0.3-0.2,0.7-0.4,1.1-0.4c0.3,0,0.7,0.1,0.9,0.2c0.3,0.2,0.5,0.4,0.7,0.6c0.2,0.3,0.3,0.6,0.4,0.9l-0.7,0
		c-0.1-0.4-0.2-0.6-0.4-0.9c-0.2-0.2-0.5-0.3-0.8-0.3c-0.3,0-0.5,0.1-0.7,0.3s-0.4,0.4-0.5,0.8s-0.2,0.8-0.2,1.3
		c0,0.5,0.1,0.9,0.2,1.2c0.1,0.3,0.3,0.6,0.5,0.8s0.5,0.3,0.8,0.3c0.3,0,0.5-0.1,0.7-0.2s0.3-0.3,0.5-0.6c0.1-0.3,0.2-0.5,0.2-0.9
		h-1.3V24h2v2.9h-0.6l0-1.3l0.2,0.1c-0.1,0.3-0.2,0.5-0.3,0.7c-0.1,0.2-0.3,0.4-0.5,0.5C370.6,26.9,370.3,27,370,27z"/>
	<path class="st7" d="M373.4,26.9v-5.7h1.7c0.6,0,1.1,0.2,1.4,0.5c0.3,0.3,0.5,0.7,0.5,1.2c0,0.3-0.1,0.5-0.2,0.7
		c-0.1,0.2-0.3,0.4-0.5,0.5s-0.4,0.2-0.6,0.2l0-0.1c0.4,0,0.7,0.1,0.8,0.3c0.2,0.2,0.3,0.4,0.3,0.8l0.1,1.6h-0.7l-0.1-1.5
		c0-0.2-0.1-0.3-0.1-0.4s-0.2-0.2-0.3-0.2c-0.1-0.1-0.3-0.1-0.6-0.1h-1.2v2.3H373.4z M374.1,23.9h1c0.4,0,0.7-0.1,0.9-0.3
		c0.2-0.2,0.3-0.4,0.3-0.8c0-0.3-0.1-0.6-0.3-0.8c-0.2-0.2-0.5-0.3-0.9-0.3h-1V23.9z"/>
	<path class="st7" d="M378.2,26.9l1.7-5.7h0.9l1.7,5.7h-0.7l-1.4-5.1l-1.4,5.1H378.2z M379.1,25.3l0.2-0.7h2.1l0.2,0.7H379.1z"/>
	<path class="st7" d="M385.2,26.9v-5h-1.7v-0.7h4.1v0.7h-1.7v5H385.2z"/>
	<path class="st7" d="M389,26.9v-0.7h1.4v-4.3H389v-0.7h3.5v0.7H391v4.3h1.4v0.7H389z"/>
	<path class="st7" d="M395.9,27c-0.4,0-0.8-0.1-1.1-0.3s-0.5-0.6-0.7-1c-0.2-0.4-0.2-1-0.2-1.6c0-0.6,0.1-1.2,0.2-1.6s0.4-0.8,0.7-1
		s0.7-0.3,1.1-0.3c0.4,0,0.8,0.1,1.1,0.3s0.5,0.6,0.7,1c0.2,0.4,0.2,1,0.2,1.6c0,0.6-0.1,1.2-0.2,1.6c-0.2,0.4-0.4,0.8-0.7,1
		S396.3,27,395.9,27z M395.9,26.3c0.3,0,0.5-0.1,0.7-0.3c0.2-0.2,0.4-0.4,0.5-0.8c0.1-0.3,0.2-0.8,0.2-1.3s-0.1-0.9-0.2-1.3
		c-0.1-0.3-0.3-0.6-0.5-0.8c-0.2-0.2-0.5-0.3-0.7-0.3s-0.5,0.1-0.7,0.3s-0.4,0.4-0.5,0.8c-0.1,0.3-0.2,0.8-0.2,1.3s0.1,0.9,0.2,1.3
		c0.1,0.3,0.3,0.6,0.5,0.8C395.3,26.2,395.6,26.3,395.9,26.3z"/>
	<path class="st7" d="M399.2,26.9v-5.7h1l2,4.9v-4.9h0.7v5.7h-1l-2-4.9v4.9H399.2z"/>
	<path class="st7" d="M406.3,27c-0.4,0-0.7-0.1-1.1-0.2c-0.3-0.2-0.6-0.4-0.7-0.7c-0.2-0.3-0.3-0.6-0.3-1l0.7,0
		c0,0.3,0.1,0.5,0.2,0.7c0.1,0.2,0.3,0.3,0.5,0.4c0.2,0.1,0.4,0.2,0.7,0.2s0.5,0,0.7-0.1c0.2-0.1,0.3-0.2,0.4-0.3
		c0.1-0.1,0.1-0.3,0.1-0.5c0-0.2,0-0.3-0.1-0.5s-0.2-0.3-0.5-0.4c-0.2-0.1-0.6-0.2-1-0.4c-0.4-0.1-0.7-0.2-0.9-0.4
		c-0.2-0.1-0.4-0.3-0.5-0.5c-0.1-0.2-0.2-0.4-0.2-0.7c0-0.3,0.1-0.6,0.2-0.8c0.2-0.2,0.4-0.4,0.6-0.6c0.3-0.1,0.6-0.2,1-0.2
		s0.7,0.1,1,0.2s0.5,0.4,0.7,0.6c0.2,0.3,0.3,0.6,0.3,0.9l-0.7,0c0-0.2-0.1-0.4-0.2-0.6c-0.1-0.2-0.2-0.3-0.4-0.4
		c-0.2-0.1-0.4-0.2-0.6-0.2c-0.3,0-0.6,0.1-0.8,0.3s-0.3,0.4-0.3,0.7c0,0.2,0,0.3,0.1,0.4c0.1,0.1,0.2,0.2,0.4,0.3
		c0.2,0.1,0.5,0.2,0.8,0.3c0.5,0.1,0.8,0.3,1.1,0.4c0.3,0.2,0.5,0.4,0.6,0.6c0.1,0.2,0.2,0.5,0.2,0.8c0,0.3-0.1,0.6-0.2,0.8
		c-0.2,0.2-0.4,0.4-0.7,0.5C407,26.9,406.7,27,406.3,27z"/>
</g>
<g>
	<rect x="24" y="70.4" class="st3" width="96" height="45"/>
	<rect x="24" y="70.4" class="st4" width="96" height="45"/>
</g>
<g>
	<ellipse class="st10" cx="51.6" cy="87.9" rx="9" ry="3.5"/>
	<g class="st5">
		<path class="st6" d="M42.6,87.9v12c0,2,18,2,18,0v-12 M42.6,93.9c0,2,18,2,18,0"/>
	</g>
</g>
<g>
	<g>
		<path class="st7" d="M76.3,89.4v-5.7h1.3c0.5,0,0.9,0.1,1.3,0.3c0.4,0.2,0.6,0.5,0.8,1c0.2,0.4,0.3,0.9,0.3,1.5s-0.1,1.1-0.3,1.5
			c-0.2,0.4-0.5,0.7-0.8,1c-0.4,0.2-0.8,0.3-1.3,0.3H76.3z M77,88.7h0.6c0.6,0,1-0.2,1.3-0.5c0.3-0.4,0.5-0.9,0.5-1.6
			s-0.2-1.3-0.5-1.6c-0.3-0.4-0.7-0.5-1.3-0.5H77V88.7z"/>
		<path class="st7" d="M81,89.4l1.7-5.7h0.9l1.7,5.7h-0.7l-1.4-5.1l-1.4,5.1H81z M81.8,87.8l0.2-0.7h2.1l0.2,0.7H81.8z"/>
		<path class="st7" d="M88,89.4v-5h-1.7v-0.7h4.1v0.7h-1.7v5H88z"/>
		<path class="st7" d="M91.3,89.4l1.7-5.7h0.9l1.7,5.7h-0.7l-1.4-5.1L92,89.4H91.3z M92.2,87.8l0.2-0.7h2.1l0.2,0.7H92.2z"/>
	</g>
	<g>
		<path class="st7" d="M78.1,101.5c-0.4,0-0.7-0.1-1.1-0.2c-0.3-0.2-0.6-0.4-0.7-0.7c-0.2-0.3-0.3-0.6-0.3-1l0.7,0
			c0,0.3,0.1,0.5,0.2,0.7s0.3,0.3,0.5,0.4c0.2,0.1,0.4,0.2,0.7,0.2s0.5,0,0.7-0.1c0.2-0.1,0.3-0.2,0.4-0.3c0.1-0.1,0.1-0.3,0.1-0.5
			c0-0.2,0-0.3-0.1-0.5s-0.2-0.3-0.5-0.4s-0.6-0.2-1-0.4c-0.4-0.1-0.7-0.2-0.9-0.4c-0.2-0.1-0.4-0.3-0.5-0.5
			c-0.1-0.2-0.2-0.4-0.2-0.7c0-0.3,0.1-0.6,0.2-0.8c0.2-0.2,0.4-0.4,0.6-0.6c0.3-0.1,0.6-0.2,1-0.2c0.4,0,0.7,0.1,1,0.2
			c0.3,0.2,0.5,0.4,0.7,0.6c0.2,0.3,0.3,0.6,0.3,0.9l-0.7,0c0-0.2-0.1-0.4-0.2-0.6c-0.1-0.2-0.2-0.3-0.4-0.4
			c-0.2-0.1-0.4-0.2-0.6-0.2c-0.3,0-0.6,0.1-0.8,0.3s-0.3,0.4-0.3,0.7c0,0.2,0,0.3,0.1,0.4c0.1,0.1,0.2,0.2,0.4,0.3s0.5,0.2,0.8,0.3
			c0.5,0.1,0.8,0.3,1.1,0.4c0.3,0.2,0.5,0.4,0.6,0.6C80,99.4,80,99.7,80,100c0,0.3-0.1,0.6-0.2,0.8c-0.2,0.2-0.4,0.4-0.7,0.5
			C78.8,101.4,78.5,101.5,78.1,101.5z"/>
		<path class="st7" d="M82.8,101.4v-5h-1.7v-0.7h4.1v0.7h-1.7v5H82.8z"/>
		<path class="st7" d="M88.3,101.5c-0.4,0-0.8-0.1-1.1-0.3c-0.3-0.2-0.5-0.6-0.7-1c-0.2-0.4-0.2-1-0.2-1.6c0-0.6,0.1-1.2,0.2-1.6
			s0.4-0.8,0.7-1c0.3-0.2,0.7-0.3,1.1-0.3c0.4,0,0.8,0.1,1.1,0.3s0.5,0.6,0.7,1c0.2,0.4,0.2,1,0.2,1.6c0,0.6-0.1,1.2-0.2,1.6
			c-0.2,0.4-0.4,0.8-0.7,1S88.7,101.5,88.3,101.5z M88.3,100.8c0.3,0,0.5-0.1,0.7-0.3c0.2-0.2,0.4-0.4,0.5-0.8
			c0.1-0.3,0.2-0.8,0.2-1.3s-0.1-0.9-0.2-1.3c-0.1-0.3-0.3-0.6-0.5-0.8c-0.2-0.2-0.5-0.3-0.7-0.3c-0.3,0-0.5,0.1-0.7,0.3
			s-0.4,0.4-0.5,0.8s-0.2,0.8-0.2,1.3s0.1,0.9,0.2,1.3c0.1,0.3,0.3,0.6,0.5,0.8C87.8,100.7,88,100.8,88.3,100.8z"/>
		<path class="st7" d="M91.6,101.4v-5.7h1.7c0.6,0,1.1,0.2,1.4,0.5c0.3,0.3,0.5,0.7,0.5,1.2c0,0.3-0.1,0.5-0.2,0.7
			c-0.1,0.2-0.3,0.4-0.5,0.5s-0.4,0.2-0.6,0.2l0-0.1c0.4,0,0.7,0.1,0.8,0.3c0.2,0.2,0.3,0.4,0.3,0.8l0.1,1.6h-0.7l-0.1-1.5
			c0-0.2-0.1-0.3-0.1-0.4s-0.2-0.2-0.3-0.2c-0.1-0.1-0.3-0.1-0.6-0.1h-1.2v2.3H91.6z M92.3,98.4h1c0.4,0,0.7-0.1,0.9-0.3
			s0.3-0.4,0.3-0.8c0-0.3-0.1-0.6-0.3-0.8s-0.5-0.3-0.9-0.3h-1V98.4z"/>
		<path class="st7" d="M97,101.4v-5.7h3.4v0.7h-2.7v1.8h2.7v0.7h-2.7v1.8h2.8v0.7H97z"/>
	</g>
</g>
<g>
	<rect x="320" y="70.4" class="st3" width="96" height="45"/>
	<rect x="320" y="70.4" class="st4" width="96" height="45"/>
</g>
<polygon class="st11" points="338.4,79.9 328.4,94.9 338.4,94.9 334.4,105.9 347.4,87.9 337.4,87.9 "/>
<g>
	<g>
		<path class="st7" d="M367.1,89.4v-5.7h1.6c0.6,0,1.1,0.1,1.4,0.4c0.3,0.3,0.5,0.7,0.5,1.1c0,0.2-0.1,0.4-0.2,0.6s-0.3,0.3-0.5,0.4
			c-0.2,0.1-0.4,0.2-0.7,0.2v0c0.3,0,0.6,0.1,0.8,0.2c0.2,0.1,0.4,0.3,0.5,0.5c0.1,0.2,0.2,0.4,0.2,0.7c0,0.5-0.2,0.9-0.5,1.2
			c-0.3,0.3-0.8,0.4-1.4,0.4H367.1z M367.8,86.1h0.9c0.4,0,0.7-0.1,0.9-0.2c0.2-0.2,0.3-0.4,0.3-0.7c0-0.3-0.1-0.5-0.3-0.7
			c-0.2-0.2-0.5-0.2-0.9-0.2h-0.9V86.1z M367.8,88.7h1.1c0.4,0,0.7-0.1,0.9-0.2s0.3-0.4,0.3-0.7c0-0.3-0.1-0.5-0.3-0.7
			s-0.5-0.3-0.9-0.3h-1.1V88.7z"/>
		<path class="st7" d="M373.9,89.5c-0.6,0-1.1-0.2-1.4-0.6c-0.3-0.4-0.5-0.9-0.5-1.5v-3.7h0.7v3.7c0,0.5,0.1,0.8,0.3,1.1
			c0.2,0.2,0.5,0.4,0.9,0.4c0.4,0,0.7-0.1,0.9-0.4c0.2-0.2,0.3-0.6,0.3-1.1v-3.7h0.7v3.7c0,0.7-0.2,1.2-0.5,1.5
			C375,89.3,374.5,89.5,373.9,89.5z"/>
		<path class="st7" d="M379.1,89.5c-0.4,0-0.7-0.1-1.1-0.2c-0.3-0.2-0.6-0.4-0.7-0.7c-0.2-0.3-0.3-0.6-0.3-1l0.7,0
			c0,0.3,0.1,0.5,0.2,0.7c0.1,0.2,0.3,0.3,0.5,0.4c0.2,0.1,0.4,0.2,0.7,0.2s0.5,0,0.7-0.1c0.2-0.1,0.3-0.2,0.4-0.3
			c0.1-0.1,0.1-0.3,0.1-0.5c0-0.2,0-0.3-0.1-0.5s-0.2-0.3-0.5-0.4c-0.2-0.1-0.6-0.2-1-0.4c-0.4-0.1-0.7-0.2-0.9-0.4
			c-0.2-0.1-0.4-0.3-0.5-0.5c-0.1-0.2-0.2-0.4-0.2-0.7c0-0.3,0.1-0.6,0.2-0.8c0.2-0.2,0.4-0.4,0.6-0.6c0.3-0.1,0.6-0.2,1-0.2
			s0.7,0.1,1,0.2c0.3,0.2,0.5,0.4,0.7,0.6c0.2,0.3,0.3,0.6,0.3,0.9l-0.7,0c0-0.2-0.1-0.4-0.2-0.6c-0.1-0.2-0.2-0.3-0.4-0.4
			c-0.2-0.1-0.4-0.2-0.6-0.2c-0.3,0-0.6,0.1-0.8,0.3c-0.2,0.2-0.3,0.4-0.3,0.7c0,0.2,0,0.3,0.1,0.4c0.1,0.1,0.2,0.2,0.4,0.3
			c0.2,0.1,0.5,0.2,0.8,0.3c0.5,0.1,0.8,0.3,1.1,0.4c0.3,0.2,0.5,0.4,0.6,0.6c0.1,0.2,0.2,0.5,0.2,0.8c0,0.3-0.1,0.6-0.2,0.8
			c-0.2,0.2-0.4,0.4-0.7,0.5C379.9,89.4,379.5,89.5,379.1,89.5z"/>
		<path class="st7" d="M382.5,89.4v-0.7h1.4v-4.3h-1.4v-0.7h3.5v0.7h-1.4v4.3h1.4v0.7H382.5z"/>
		<path class="st7" d="M387.6,89.4v-5.7h1l2,4.9v-4.9h0.7v5.7h-1l-2-4.9v4.9H387.6z"/>
		<path class="st7" d="M392.9,89.4v-5.7h3.4v0.7h-2.7v1.8h2.7v0.7h-2.7v1.8h2.8v0.7H392.9z"/>
		<path class="st7" d="M399.8,89.5c-0.4,0-0.7-0.1-1.1-0.2c-0.3-0.2-0.6-0.4-0.7-0.7c-0.2-0.3-0.3-0.6-0.3-1l0.7,0
			c0,0.3,0.1,0.5,0.2,0.7s0.3,0.3,0.5,0.4c0.2,0.1,0.4,0.2,0.7,0.2c0.3,0,0.5,0,0.7-0.1c0.2-0.1,0.3-0.2,0.4-0.3
			c0.1-0.1,0.1-0.3,0.1-0.5c0-0.2,0-0.3-0.1-0.5s-0.2-0.3-0.5-0.4c-0.2-0.1-0.6-0.2-1-0.4c-0.4-0.1-0.7-0.2-0.9-0.4
			c-0.2-0.1-0.4-0.3-0.5-0.5c-0.1-0.2-0.2-0.4-0.2-0.7c0-0.3,0.1-0.6,0.2-0.8c0.2-0.2,0.4-0.4,0.6-0.6c0.3-0.1,0.6-0.2,1-0.2
			s0.7,0.1,1,0.2s0.5,0.4,0.7,0.6c0.2,0.3,0.3,0.6,0.3,0.9l-0.7,0c0-0.2-0.1-0.4-0.2-0.6c-0.1-0.2-0.2-0.3-0.4-0.4
			c-0.2-0.1-0.4-0.2-0.6-0.2c-0.3,0-0.6,0.1-0.8,0.3c-0.2,0.2-0.3,0.4-0.3,0.7c0,0.2,0,0.3,0.1,0.4c0.1,0.1,0.2,0.2,0.4,0.3
			s0.5,0.2,0.8,0.3c0.5,0.1,0.8,0.3,1.1,0.4c0.3,0.2,0.5,0.4,0.6,0.6c0.1,0.2,0.2,0.5,0.2,0.8c0,0.3-0.1,0.6-0.2,0.8
			c-0.2,0.2-0.4,0.4-0.7,0.5C400.5,89.4,400.2,89.5,399.8,89.5z"/>
		<path class="st7" d="M405,89.5c-0.4,0-0.7-0.1-1.1-0.2c-0.3-0.2-0.6-0.4-0.7-0.7c-0.2-0.3-0.3-0.6-0.3-1l0.7,0
			c0,0.3,0.1,0.5,0.2,0.7c0.1,0.2,0.3,0.3,0.5,0.4c0.2,0.1,0.4,0.2,0.7,0.2s0.5,0,0.7-0.1c0.2-0.1,0.3-0.2,0.4-0.3
			c0.1-0.1,0.1-0.3,0.1-0.5c0-0.2,0-0.3-0.1-0.5s-0.2-0.3-0.5-0.4c-0.2-0.1-0.6-0.2-1-0.4c-0.4-0.1-0.7-0.2-0.9-0.4
			c-0.2-0.1-0.4-0.3-0.5-0.5c-0.1-0.2-0.2-0.4-0.2-0.7c0-0.3,0.1-0.6,0.2-0.8c0.2-0.2,0.4-0.4,0.6-0.6c0.3-0.1,0.6-0.2,1-0.2
			s0.7,0.1,1,0.2s0.5,0.4,0.7,0.6c0.2,0.3,0.3,0.6,0.3,0.9l-0.7,0c0-0.2-0.1-0.4-0.2-0.6c-0.1-0.2-0.2-0.3-0.4-0.4
			c-0.2-0.1-0.4-0.2-0.6-0.2c-0.3,0-0.6,0.1-0.8,0.3s-0.3,0.4-0.3,0.7c0,0.2,0,0.3,0.1,0.4c0.1,0.1,0.2,0.2,0.4,0.3
			c0.2,0.1,0.5,0.2,0.8,0.3c0.5,0.1,0.8,0.3,1.1,0.4c0.3,0.2,0.5,0.4,0.6,0.6c0.1,0.2,0.2,0.5,0.2,0.8c0,0.3-0.1,0.6-0.2,0.8
			c-0.2,0.2-0.4,0.4-0.7,0.5C405.7,89.4,405.3,89.5,405,89.5z"/>
	</g>
	<g>
		<path class="st7" d="M367.1,101.4v-5.7h0.7v5.4l-0.3-0.4h3.2v0.7H367.1z"/>
		<path class="st7" d="M373.9,101.5c-0.4,0-0.8-0.1-1.1-0.3s-0.5-0.6-0.7-1c-0.2-0.4-0.2-1-0.2-1.6c0-0.6,0.1-1.2,0.2-1.6
			c0.2-0.4,0.4-0.8,0.7-1s0.7-0.3,1.1-0.3c0.4,0,0.8,0.1,1.1,0.3s0.5,0.6,0.7,1s0.2,1,0.2,1.6c0,0.6-0.1,1.2-0.2,1.6
			c-0.2,0.4-0.4,0.8-0.7,1S374.3,101.5,373.9,101.5z M373.9,100.8c0.3,0,0.5-0.1,0.7-0.3c0.2-0.2,0.4-0.4,0.5-0.8
			c0.1-0.3,0.2-0.8,0.2-1.3s-0.1-0.9-0.2-1.3c-0.1-0.3-0.3-0.6-0.5-0.8s-0.5-0.3-0.7-0.3c-0.3,0-0.5,0.1-0.7,0.3
			c-0.2,0.2-0.4,0.4-0.5,0.8c-0.1,0.3-0.2,0.8-0.2,1.3s0.1,0.9,0.2,1.3c0.1,0.3,0.3,0.6,0.5,0.8
			C373.4,100.7,373.6,100.8,373.9,100.8z"/>
		<path class="st7" d="M379,101.5c-0.4,0-0.8-0.1-1.1-0.3c-0.3-0.2-0.6-0.6-0.7-1c-0.2-0.4-0.3-1-0.3-1.6c0-0.6,0.1-1.1,0.2-1.6
			c0.2-0.4,0.4-0.8,0.7-1c0.3-0.2,0.7-0.4,1.1-0.4c0.3,0,0.6,0.1,0.9,0.2c0.3,0.2,0.5,0.4,0.7,0.6c0.2,0.3,0.3,0.6,0.4,0.9l-0.7,0
			c-0.1-0.4-0.2-0.6-0.4-0.9c-0.2-0.2-0.5-0.3-0.8-0.3c-0.3,0-0.5,0.1-0.7,0.3c-0.2,0.2-0.4,0.4-0.5,0.8s-0.2,0.8-0.2,1.3
			c0,0.5,0.1,0.9,0.2,1.2c0.1,0.3,0.3,0.6,0.5,0.8s0.5,0.3,0.8,0.3c0.3,0,0.5-0.1,0.7-0.2s0.3-0.3,0.5-0.6c0.1-0.3,0.2-0.5,0.2-0.9
			h-1.3v-0.7h2v2.9h-0.6l0-1.3l0.2,0.1c-0.1,0.3-0.2,0.5-0.3,0.7c-0.1,0.2-0.3,0.4-0.5,0.5C379.6,101.4,379.3,101.5,379,101.5z"/>
		<path class="st7" d="M382.5,101.4v-0.7h1.4v-4.3h-1.4v-0.7h3.5v0.7h-1.4v4.3h1.4v0.7H382.5z"/>
		<path class="st7" d="M389.4,101.5c-0.4,0-0.8-0.1-1.1-0.4c-0.3-0.2-0.5-0.6-0.7-1c-0.2-0.4-0.2-1-0.2-1.6c0-0.6,0.1-1.1,0.2-1.6
			c0.2-0.4,0.4-0.8,0.7-1c0.3-0.2,0.7-0.4,1.1-0.4c0.5,0,0.9,0.2,1.3,0.5c0.3,0.3,0.6,0.8,0.7,1.4l-0.7,0c-0.1-0.4-0.2-0.7-0.5-0.9
			s-0.5-0.3-0.8-0.3c-0.3,0-0.6,0.1-0.8,0.3c-0.2,0.2-0.4,0.4-0.5,0.8c-0.1,0.3-0.2,0.8-0.2,1.3c0,0.5,0.1,0.9,0.2,1.2
			c0.1,0.3,0.3,0.6,0.5,0.8c0.2,0.2,0.5,0.3,0.8,0.3c0.3,0,0.6-0.1,0.8-0.3s0.4-0.6,0.5-1l0.7,0c-0.1,0.6-0.3,1.1-0.7,1.5
			C390.4,101.3,389.9,101.5,389.4,101.5z"/>
	</g>
</g>
<g class="st5">
	<line class="st6" x1="44" y1="141.4" x2="46.5" y2="141.4"/>
	<polyline class="st12" points="51.5,141.4 132,141.4 220,141.4 308,141.4 387,141.4 	"/>
	<line class="st6" x1="389.5" y1="141.4" x2="392" y2="141.4"/>
</g>
<circle class="st13" cx="44" cy="141.4" r="8"/>
<circle class="st13" cx="132" cy="141.4" r="8"/>
<g>
	<circle class="st14" cx="220" cy="141.4" r="8"/>
	<circle class="st15" cx="220" cy="141.4" r="8"/>
</g>
<circle class="st13" cx="308" cy="141.4" r="8"/>
<circle class="st16" cx="392" cy="141.4" r="8"/>
<circle class="st2" cx="220" cy="141.4" r="3"/>
<polyline class="st11" points="388,140.4 391,144.4 397,137.4 "/>
<g>
	<path class="st7" d="M24.1,163.4v-5.7h1.3c0.5,0,0.9,0.1,1.3,0.3c0.4,0.2,0.6,0.5,0.8,1c0.2,0.4,0.3,0.9,0.3,1.5s-0.1,1.1-0.3,1.5
		c-0.2,0.4-0.5,0.7-0.8,1c-0.4,0.2-0.8,0.3-1.3,0.3H24.1z M24.8,162.8h0.6c0.6,0,1-0.2,1.3-0.5c0.3-0.4,0.5-0.9,0.5-1.6
		s-0.2-1.3-0.5-1.6c-0.3-0.4-0.7-0.5-1.3-0.5h-0.6V162.8z"/>
	<path class="st7" d="M29.2,163.4v-0.7h1.4v-4.3h-1.4v-0.7h3.5v0.7h-1.4v4.3h1.4v0.7H29.2z"/>
	<path class="st7" d="M36.1,163.6c-0.4,0-0.7-0.1-1.1-0.2c-0.3-0.2-0.6-0.4-0.7-0.7c-0.2-0.3-0.3-0.6-0.3-1l0.7,0
		c0,0.3,0.1,0.5,0.2,0.7s0.3,0.3,0.5,0.4c0.2,0.1,0.4,0.2,0.7,0.2s0.5,0,0.7-0.1c0.2-0.1,0.3-0.2,0.4-0.3c0.1-0.1,0.1-0.3,0.1-0.5
		c0-0.2,0-0.3-0.1-0.5s-0.2-0.3-0.5-0.4s-0.6-0.2-1-0.4c-0.4-0.1-0.7-0.2-0.9-0.4c-0.2-0.1-0.4-0.3-0.5-0.5
		c-0.1-0.2-0.2-0.4-0.2-0.7c0-0.3,0.1-0.6,0.2-0.8c0.2-0.2,0.4-0.4,0.6-0.6c0.3-0.1,0.6-0.2,1-0.2c0.4,0,0.7,0.1,1,0.2
		c0.3,0.2,0.5,0.4,0.7,0.6c0.2,0.3,0.3,0.6,0.3,0.9l-0.7,0c0-0.2-0.1-0.4-0.2-0.6c-0.1-0.2-0.2-0.3-0.4-0.4
		c-0.2-0.1-0.4-0.2-0.6-0.2c-0.3,0-0.6,0.1-0.8,0.3s-0.3,0.4-0.3,0.7c0,0.2,0,0.3,0.1,0.4c0.1,0.1,0.2,0.2,0.4,0.3s0.5,0.2,0.8,0.3
		c0.5,0.1,0.8,0.3,1.1,0.4c0.3,0.2,0.5,0.4,0.6,0.6c0.1,0.2,0.2,0.5,0.2,0.8c0,0.3-0.1,0.6-0.2,0.8c-0.2,0.2-0.4,0.4-0.7,0.5
		C36.9,163.5,36.5,163.6,36.1,163.6z"/>
	<path class="st7" d="M41.2,163.6c-0.4,0-0.8-0.1-1.1-0.4c-0.3-0.2-0.5-0.6-0.7-1s-0.2-1-0.2-1.6c0-0.6,0.1-1.1,0.2-1.6
		s0.4-0.8,0.7-1c0.3-0.2,0.7-0.4,1.1-0.4c0.5,0,0.9,0.2,1.3,0.5c0.3,0.3,0.6,0.8,0.7,1.4l-0.7,0c-0.1-0.4-0.2-0.7-0.5-0.9
		s-0.5-0.3-0.8-0.3c-0.3,0-0.6,0.1-0.8,0.3s-0.4,0.4-0.5,0.8s-0.2,0.8-0.2,1.3c0,0.5,0.1,0.9,0.2,1.2c0.1,0.3,0.3,0.6,0.5,0.8
		s0.5,0.3,0.8,0.3c0.3,0,0.6-0.1,0.8-0.3s0.4-0.6,0.5-1l0.7,0c-0.1,0.6-0.3,1.1-0.7,1.5C42.2,163.4,41.8,163.6,41.2,163.6z"/>
	<path class="st7" d="M46.4,163.6c-0.4,0-0.8-0.1-1.1-0.3c-0.3-0.2-0.5-0.6-0.7-1c-0.2-0.4-0.2-1-0.2-1.6c0-0.6,0.1-1.2,0.2-1.6
		s0.4-0.8,0.7-1c0.3-0.2,0.7-0.3,1.1-0.3c0.4,0,0.8,0.1,1.1,0.3s0.5,0.6,0.7,1c0.2,0.4,0.2,1,0.2,1.6c0,0.6-0.1,1.2-0.2,1.6
		c-0.2,0.4-0.4,0.8-0.7,1S46.8,163.6,46.4,163.6z M46.4,162.9c0.3,0,0.5-0.1,0.7-0.3c0.2-0.2,0.4-0.4,0.5-0.8
		c0.1-0.3,0.2-0.8,0.2-1.3s-0.1-0.9-0.2-1.3c-0.1-0.3-0.3-0.6-0.5-0.8c-0.2-0.2-0.5-0.3-0.7-0.3c-0.3,0-0.5,0.1-0.7,0.3
		s-0.4,0.4-0.5,0.8s-0.2,0.8-0.2,1.3s0.1,0.9,0.2,1.3c0.1,0.3,0.3,0.6,0.5,0.8C45.8,162.8,46.1,162.9,46.4,162.9z"/>
	<path class="st7" d="M51.1,163.4l-1.7-5.7h0.7l1.5,5.2h-0.2l1.5-5.2h0.7l-1.7,5.7H51.1z"/>
	<path class="st7" d="M55,163.4v-5.7h3.4v0.7h-2.7v1.8h2.7v0.7h-2.7v1.8h2.8v0.7H55z"/>
	<path class="st7" d="M60,163.4v-5.7h1.7c0.6,0,1.1,0.2,1.4,0.5c0.3,0.3,0.5,0.7,0.5,1.2c0,0.3-0.1,0.5-0.2,0.7
		c-0.1,0.2-0.3,0.4-0.5,0.5c-0.2,0.1-0.4,0.2-0.6,0.2l0-0.1c0.4,0,0.7,0.1,0.8,0.3c0.2,0.2,0.3,0.4,0.3,0.8l0.1,1.6H63l-0.1-1.5
		c0-0.2-0.1-0.3-0.1-0.4c-0.1-0.1-0.2-0.2-0.3-0.2c-0.1-0.1-0.3-0.1-0.6-0.1h-1.2v2.3H60z M60.7,160.5h1c0.4,0,0.7-0.1,0.9-0.3
		c0.2-0.2,0.3-0.4,0.3-0.8c0-0.3-0.1-0.6-0.3-0.8c-0.2-0.2-0.5-0.3-0.9-0.3h-1V160.5z"/>
</g>
<g>
	<path class="st7" d="M117.2,163.4v-5.7h1.3c0.5,0,0.9,0.1,1.3,0.3c0.4,0.2,0.6,0.5,0.8,1c0.2,0.4,0.3,0.9,0.3,1.5s-0.1,1.1-0.3,1.5
		c-0.2,0.4-0.5,0.7-0.8,1c-0.4,0.2-0.8,0.3-1.3,0.3H117.2z M117.9,162.8h0.6c0.6,0,1-0.2,1.3-0.5c0.3-0.4,0.5-0.9,0.5-1.6
		s-0.2-1.3-0.5-1.6c-0.3-0.4-0.7-0.5-1.3-0.5h-0.6V162.8z"/>
	<path class="st7" d="M122.4,163.4v-5.7h3.4v0.7h-2.7v1.8h2.7v0.7h-2.7v1.8h2.8v0.7H122.4z"/>
	<path class="st7" d="M129.3,163.6c-0.4,0-0.7-0.1-1.1-0.2c-0.3-0.2-0.6-0.4-0.7-0.7c-0.2-0.3-0.3-0.6-0.3-1l0.7,0
		c0,0.3,0.1,0.5,0.2,0.7s0.3,0.3,0.5,0.4c0.2,0.1,0.4,0.2,0.7,0.2s0.5,0,0.7-0.1c0.2-0.1,0.3-0.2,0.4-0.3c0.1-0.1,0.1-0.3,0.1-0.5
		c0-0.2,0-0.3-0.1-0.5s-0.2-0.3-0.5-0.4s-0.6-0.2-1-0.4c-0.4-0.1-0.7-0.2-0.9-0.4c-0.2-0.1-0.4-0.3-0.5-0.5
		c-0.1-0.2-0.2-0.4-0.2-0.7c0-0.3,0.1-0.6,0.2-0.8c0.2-0.2,0.4-0.4,0.6-0.6c0.3-0.1,0.6-0.2,1-0.2c0.4,0,0.7,0.1,1,0.2
		c0.3,0.2,0.5,0.4,0.7,0.6c0.2,0.3,0.3,0.6,0.3,0.9l-0.7,0c0-0.2-0.1-0.4-0.2-0.6c-0.1-0.2-0.2-0.3-0.4-0.4
		c-0.2-0.1-0.4-0.2-0.6-0.2c-0.3,0-0.6,0.1-0.8,0.3s-0.3,0.4-0.3,0.7c0,0.2,0,0.3,0.1,0.4c0.1,0.1,0.2,0.2,0.4,0.3s0.5,0.2,0.8,0.3
		c0.5,0.1,0.8,0.3,1.1,0.4c0.3,0.2,0.5,0.4,0.6,0.6c0.1,0.2,0.2,0.5,0.2,0.8c0,0.3-0.1,0.6-0.2,0.8c-0.2,0.2-0.4,0.4-0.7,0.5
		C130,163.5,129.7,163.6,129.3,163.6z"/>
	<path class="st7" d="M132.6,163.4v-0.7h1.4v-4.3h-1.4v-0.7h3.5v0.7h-1.4v4.3h1.4v0.7H132.6z"/>
	<path class="st7" d="M139.5,163.6c-0.4,0-0.8-0.1-1.1-0.3c-0.3-0.2-0.6-0.6-0.7-1c-0.2-0.4-0.3-1-0.3-1.6c0-0.6,0.1-1.1,0.2-1.6
		c0.2-0.4,0.4-0.8,0.7-1c0.3-0.2,0.7-0.4,1.1-0.4c0.3,0,0.6,0.1,0.9,0.2c0.3,0.2,0.5,0.4,0.7,0.6c0.2,0.3,0.3,0.6,0.4,0.9l-0.7,0
		c-0.1-0.4-0.2-0.6-0.4-0.9c-0.2-0.2-0.5-0.3-0.8-0.3c-0.3,0-0.5,0.1-0.7,0.3c-0.2,0.2-0.4,0.4-0.5,0.8s-0.2,0.8-0.2,1.3
		c0,0.5,0.1,0.9,0.2,1.2c0.1,0.3,0.3,0.6,0.5,0.8s0.5,0.3,0.8,0.3c0.3,0,0.5-0.1,0.7-0.2s0.3-0.3,0.5-0.6c0.1-0.3,0.2-0.5,0.2-0.9
		h-1.3v-0.7h2v2.9h-0.6l0-1.3l0.2,0.1c-0.1,0.3-0.2,0.5-0.3,0.7c-0.1,0.2-0.3,0.4-0.5,0.5S139.8,163.6,139.5,163.6z"/>
	<path class="st7" d="M142.9,163.4v-5.7h1l2,4.9v-4.9h0.7v5.7h-1l-2-4.9v4.9H142.9z"/>
</g>
<g>
	<path class="st7" d="M207.8,163.4v-5.7h1.6c0.6,0,1.1,0.1,1.4,0.4s0.5,0.7,0.5,1.1c0,0.2-0.1,0.4-0.2,0.6c-0.1,0.2-0.3,0.3-0.5,0.4
		c-0.2,0.1-0.4,0.2-0.7,0.2v0c0.3,0,0.6,0.1,0.8,0.2c0.2,0.1,0.4,0.3,0.5,0.5c0.1,0.2,0.2,0.4,0.2,0.7c0,0.5-0.2,0.9-0.5,1.2
		c-0.3,0.3-0.8,0.4-1.4,0.4H207.8z M208.5,160.2h0.9c0.4,0,0.7-0.1,0.9-0.2c0.2-0.2,0.3-0.4,0.3-0.7c0-0.3-0.1-0.5-0.3-0.7
		c-0.2-0.2-0.5-0.2-0.9-0.2h-0.9V160.2z M208.5,162.8h1.1c0.4,0,0.7-0.1,0.9-0.2c0.2-0.2,0.3-0.4,0.3-0.7c0-0.3-0.1-0.5-0.3-0.7
		s-0.5-0.3-0.9-0.3h-1.1V162.8z"/>
	<path class="st7" d="M214.6,163.6c-0.6,0-1.1-0.2-1.4-0.6c-0.3-0.4-0.5-0.9-0.5-1.5v-3.7h0.7v3.7c0,0.5,0.1,0.8,0.3,1.1
		c0.2,0.2,0.5,0.4,0.9,0.4s0.7-0.1,0.9-0.4c0.2-0.2,0.3-0.6,0.3-1.1v-3.7h0.7v3.7c0,0.7-0.2,1.2-0.5,1.5
		C215.7,163.4,215.2,163.6,214.6,163.6z"/>
	<path class="st7" d="M218.1,163.4v-0.7h1.4v-4.3h-1.4v-0.7h3.5v0.7h-1.4v4.3h1.4v0.7H218.1z"/>
	<path class="st7" d="M223.4,163.4v-5.7h0.7v5.4l-0.3-0.4h3.2v0.7H223.4z"/>
	<path class="st7" d="M228.5,163.4v-5.7h1.3c0.5,0,0.9,0.1,1.3,0.3c0.4,0.2,0.6,0.5,0.8,1s0.3,0.9,0.3,1.5s-0.1,1.1-0.3,1.5
		c-0.2,0.4-0.5,0.7-0.8,1s-0.8,0.3-1.3,0.3H228.5z M229.1,162.8h0.6c0.6,0,1-0.2,1.3-0.5c0.3-0.4,0.5-0.9,0.5-1.6s-0.2-1.3-0.5-1.6
		c-0.3-0.4-0.7-0.5-1.3-0.5h-0.6V162.8z"/>
</g>
<g>
	<path class="st7" d="M299.7,163.4v-5H298v-0.7h4.1v0.7h-1.7v5H299.7z"/>
	<path class="st7" d="M303.6,163.4v-5.7h3.4v0.7h-2.7v1.8h2.7v0.7h-2.7v1.8h2.8v0.7H303.6z"/>
	<path class="st7" d="M310.5,163.6c-0.4,0-0.8-0.1-1.1-0.2s-0.6-0.4-0.7-0.7c-0.2-0.3-0.3-0.6-0.3-1l0.7,0c0,0.3,0.1,0.5,0.2,0.7
		c0.1,0.2,0.3,0.3,0.5,0.4c0.2,0.1,0.4,0.2,0.7,0.2s0.5,0,0.7-0.1c0.2-0.1,0.3-0.2,0.4-0.3c0.1-0.1,0.1-0.3,0.1-0.5
		c0-0.2,0-0.3-0.1-0.5s-0.2-0.3-0.5-0.4c-0.2-0.1-0.6-0.2-1-0.4c-0.4-0.1-0.7-0.2-0.9-0.4c-0.2-0.1-0.4-0.3-0.5-0.5
		c-0.1-0.2-0.2-0.4-0.2-0.7c0-0.3,0.1-0.6,0.2-0.8c0.2-0.2,0.4-0.4,0.6-0.6c0.3-0.1,0.6-0.2,1-0.2c0.4,0,0.7,0.1,1,0.2
		s0.5,0.4,0.7,0.6c0.2,0.3,0.3,0.6,0.3,0.9l-0.7,0c0-0.2-0.1-0.4-0.2-0.6c-0.1-0.2-0.2-0.3-0.4-0.4c-0.2-0.1-0.4-0.2-0.6-0.2
		c-0.3,0-0.6,0.1-0.8,0.3c-0.2,0.2-0.3,0.4-0.3,0.7c0,0.2,0,0.3,0.1,0.4c0.1,0.1,0.2,0.2,0.4,0.3c0.2,0.1,0.5,0.2,0.8,0.3
		c0.5,0.1,0.8,0.3,1.1,0.4c0.3,0.2,0.5,0.4,0.6,0.6c0.1,0.2,0.2,0.5,0.2,0.8c0,0.3-0.1,0.6-0.2,0.8c-0.2,0.2-0.4,0.4-0.7,0.5
		C311.2,163.5,310.9,163.6,310.5,163.6z"/>
	<path class="st7" d="M315.2,163.4v-5h-1.7v-0.7h4.1v0.7h-1.7v5H315.2z"/>
</g>
<g>
	<path class="st7" d="M377.2,163.4v-5.7h1.3c0.5,0,0.9,0.1,1.3,0.3c0.4,0.2,0.6,0.5,0.8,1c0.2,0.4,0.3,0.9,0.3,1.5s-0.1,1.1-0.3,1.5
		c-0.2,0.4-0.5,0.7-0.8,1c-0.4,0.2-0.8,0.3-1.3,0.3H377.2z M377.9,162.8h0.6c0.6,0,1-0.2,1.3-0.5s0.5-0.9,0.5-1.6s-0.2-1.3-0.5-1.6
		s-0.7-0.5-1.3-0.5h-0.6V162.8z"/>
	<path class="st7" d="M382.4,163.4v-5.7h3.4v0.7h-2.7v1.8h2.7v0.7h-2.7v1.8h2.8v0.7H382.4z"/>
	<path class="st7" d="M387.6,163.4v-5.7h1.7c0.4,0,0.7,0.1,1,0.2s0.5,0.3,0.7,0.6c0.2,0.3,0.2,0.6,0.2,0.9c0,0.4-0.1,0.7-0.2,0.9
		c-0.2,0.3-0.4,0.5-0.7,0.6s-0.6,0.2-1,0.2h-1v2.2H387.6z M388.2,160.6h1c0.4,0,0.8-0.1,1-0.3c0.2-0.2,0.3-0.4,0.3-0.8
		c0-0.3-0.1-0.6-0.3-0.8c-0.2-0.2-0.5-0.3-1-0.3h-1V160.6z"/>
	<path class="st7" d="M392.8,163.4v-5.7h0.7v5.4l-0.3-0.4h3.2v0.7H392.8z"/>
	<path class="st7" d="M399.5,163.6c-0.4,0-0.8-0.1-1.1-0.3c-0.3-0.2-0.5-0.6-0.7-1c-0.2-0.4-0.2-1-0.2-1.6c0-0.6,0.1-1.2,0.2-1.6
		c0.2-0.4,0.4-0.8,0.7-1c0.3-0.2,0.7-0.3,1.1-0.3s0.8,0.1,1.1,0.3s0.5,0.6,0.7,1c0.2,0.4,0.2,1,0.2,1.6c0,0.6-0.1,1.2-0.2,1.6
		c-0.2,0.4-0.4,0.8-0.7,1S400,163.6,399.5,163.6z M399.5,162.9c0.3,0,0.5-0.1,0.7-0.3c0.2-0.2,0.4-0.4,0.5-0.8
		c0.1-0.3,0.2-0.8,0.2-1.3s-0.1-0.9-0.2-1.3s-0.3-0.6-0.5-0.8c-0.2-0.2-0.5-0.3-0.7-0.3s-0.5,0.1-0.7,0.3c-0.2,0.2-0.4,0.4-0.5,0.8
		c-0.1,0.3-0.2,0.8-0.2,1.3s0.1,0.9,0.2,1.3c0.1,0.3,0.3,0.6,0.5,0.8C399,162.8,399.3,162.9,399.5,162.9z"/>
	<path class="st7" d="M404.4,163.4v-2.3l-1.7-3.4h0.8l1.3,2.7l1.3-2.7h0.8l-1.7,3.4v2.3H404.4z"/>
</g>
<g>
	<g>
		<ellipse class="st17" cx="220" cy="93" rx="12.6" ry="10.6"/>
		<ellipse class="st18" cx="220" cy="93" rx="12.6" ry="10.6"/>
	</g>
	<polygon class="st19" points="186.9,77.4 186.9,109.5 220,125.5 253.1,109.5 253.1,77.4 220,61.3 	"/>
	<g class="st20">
		<polyline class="st1" points="198.8,80.9 196.5,82 196.5,84.5 		"/>
		<line class="st21" x1="196.5" y1="90.5" x2="196.5" y2="99.4"/>
		<polyline class="st1" points="196.5,102.3 196.5,104.8 198.8,105.9 		"/>
		<line class="st22" x1="202.6" y1="107.8" x2="215.9" y2="114.2"/>
		<polyline class="st1" points="217.8,115.1 220,116.2 222.2,115.1 		"/>
		<line class="st22" x1="226" y1="113.3" x2="239.3" y2="106.8"/>
		<polyline class="st1" points="241.2,105.9 243.5,104.8 243.5,102.3 		"/>
		<line class="st21" x1="243.5" y1="96.4" x2="243.5" y2="87.5"/>
		<polyline class="st1" points="243.5,84.5 243.5,82 241.2,80.9 		"/>
		<line class="st22" x1="237.4" y1="79.1" x2="224.1" y2="72.7"/>
		<polyline class="st1" points="222.2,71.7 220,70.6 217.8,71.7 		"/>
		<line class="st22" x1="214" y1="73.6" x2="200.7" y2="80"/>
	</g>
	<polygon class="st19" points="207.1,87.2 207.1,99.7 220,105.9 232.9,99.7 232.9,87.2 220,80.9 	"/>
	<g>
		<g>
			<line class="st3" x1="220" y1="125.5" x2="220" y2="93.4"/>
			<line class="st19" x1="220" y1="125.5" x2="220" y2="93.4"/>
		</g>
		<g>
			<line class="st3" x1="186.9" y1="109.5" x2="220" y2="93"/>
			<line class="st19" x1="186.9" y1="109.5" x2="220" y2="93"/>
		</g>
		<g>
			<line class="st3" x1="186.9" y1="77.4" x2="220" y2="93"/>
			<line class="st19" x1="186.9" y1="77.4" x2="220" y2="93"/>
		</g>
		<g>
			<polyline class="st3" points="220,61.3 220,61.3 220,93 			"/>
			<polyline class="st19" points="220,61.3 220,61.3 220,93 			"/>
		</g>
		<g>
			<line class="st3" x1="253.1" y1="77.4" x2="220" y2="93"/>
			<line class="st19" x1="253.1" y1="77.4" x2="220" y2="93"/>
		</g>
		<g>
			<line class="st3" x1="253.1" y1="109.5" x2="220" y2="93"/>
			<line class="st19" x1="253.1" y1="109.5" x2="220" y2="93"/>
		</g>
	</g>
	<ellipse class="st2" cx="220" cy="93" rx="3" ry="2.5"/>
</g>
<polyline class="st23" points="72,40.9 72,58.4 127.7,58.4 127.7,93.4 "/>
<path class="st24" d="M367,40.9"/>
<polyline class="st23" points="367,40.9 367,58.4 312.3,58.4 312.3,93.4 "/>
<line class="st23" x1="220" y1="40.4" x2="220" y2="61.3"/>
</svg>
