<svg xmlns:xlink="http://www.w3.org/1999/xlink" xmlns="http://www.w3.org/2000/svg" viewBox="0 0 364 164" class="w-full h-full absolute inset-0" width="364" height="164"><defs><radialGradient id="dotGlow" cx="50%" cy="50%" r="50%"><stop offset="0%" stop-color="rgba(74, 222, 128, 0.6)"></stop><stop offset="100%" stop-color="rgba(74, 222, 128, 0)"></stop></radialGradient><radialGradient id="centerGlow" cx="50%" cy="50%" r="50%"><stop offset="0%" stop-color="rgba(74, 222, 128, 0.9)"></stop><stop offset="100%" stop-color="rgba(74, 222, 128, 0)"></stop></radialGradient><radialGradient id="bgGlowRadar" cx="50%" cy="50%" r="50%"><stop offset="0%" stop-color="rgba(74, 222, 128, 0.15)"></stop><stop offset="100%" stop-color="rgba(5, 11, 8, 0)"></stop></radialGradient><linearGradient id="beamGrad" x1="0" y1="1" x2="0" y2="0"><stop offset="0%" stop-color="rgba(74, 222, 128, 0.45)"></stop><stop offset="100%" stop-color="rgba(74, 222, 128, 0)"></stop></linearGradient><pattern id="bgGridRadar" width="20" height="20" patternUnits="userSpaceOnUse"><line x1="20" y1="0" x2="20" y2="20" stroke="rgba(74, 222, 128, 0.04)" stroke-width="0.5"></line><line x1="0" y1="20" x2="20" y2="20" stroke="rgba(74, 222, 128, 0.04)" stroke-width="0.5"></line></pattern><pattern id="bgGridRadar" width="20" height="20" patternUnits="userSpaceOnUse"><line x1="20" y1="0" x2="20" y2="20" stroke="rgba(74, 222, 128, 0.04)" stroke-width="0.5"></line><line x1="0" y1="20" x2="20" y2="20" stroke="rgba(74, 222, 128, 0.04)" stroke-width="0.5"></line></pattern><radialGradient id="bgGlowRadar" cx="50%" cy="50%" r="50%"><stop offset="0%" stop-color="rgba(74, 222, 128, 0.15)"></stop><stop offset="100%" stop-color="rgba(5, 11, 8, 0)"></stop></radialGradient><linearGradient id="beamGrad" x1="0" y1="1" x2="0" y2="0"><stop offset="0%" stop-color="rgba(74, 222, 128, 0.45)"></stop><stop offset="100%" stop-color="rgba(74, 222, 128, 0)"></stop></linearGradient><radialGradient id="centerGlow" cx="50%" cy="50%" r="50%"><stop offset="0%" stop-color="rgba(74, 222, 128, 0.9)"></stop><stop offset="100%" stop-color="rgba(74, 222, 128, 0)"></stop></radialGradient><radialGradient id="dotGlow" cx="50%" cy="50%" r="50%"><stop offset="0%" stop-color="rgba(74, 222, 128, 0.6)"></stop><stop offset="100%" stop-color="rgba(74, 222, 128, 0)"></stop></radialGradient><radialGradient id="dotGlow" cx="50%" cy="50%" r="50%"><stop offset="0%" stop-color="rgba(74, 222, 128, 0.6)"></stop><stop offset="100%" stop-color="rgba(74, 222, 128, 0)"></stop></radialGradient><radialGradient id="dotGlow" cx="50%" cy="50%" r="50%"><stop offset="0%" stop-color="rgba(74, 222, 128, 0.6)"></stop><stop offset="100%" stop-color="rgba(74, 222, 128, 0)"></stop></radialGradient><radialGradient id="dotGlow" cx="50%" cy="50%" r="50%"><stop offset="0%" stop-color="rgba(74, 222, 128, 0.6)"></stop><stop offset="100%" stop-color="rgba(74, 222, 128, 0)"></stop></radialGradient><pattern id="bgGridRadar" width="20" height="20" patternUnits="userSpaceOnUse"><line x1="20" y1="0" x2="20" y2="20" stroke="rgba(74, 222, 128, 0.04)" stroke-width="0.5"></line><line x1="0" y1="20" x2="20" y2="20" stroke="rgba(74, 222, 128, 0.04)" stroke-width="0.5"></line></pattern><radialGradient id="bgGlowRadar" cx="50%" cy="50%" r="50%"><stop offset="0%" stop-color="rgba(74, 222, 128, 0.15)"></stop><stop offset="100%" stop-color="rgba(5, 11, 8, 0)"></stop></radialGradient><linearGradient id="beamGrad" x1="0" y1="1" x2="0" y2="0"><stop offset="0%" stop-color="rgba(74, 222, 128, 0.45)"></stop><stop offset="100%" stop-color="rgba(74, 222, 128, 0)"></stop></linearGradient><radialGradient id="centerGlow" cx="50%" cy="50%" r="50%"><stop offset="0%" stop-color="rgba(74, 222, 128, 0.9)"></stop><stop offset="100%" stop-color="rgba(74, 222, 128, 0)"></stop></radialGradient><radialGradient id="dotGlow" cx="50%" cy="50%" r="50%"><stop offset="0%" stop-color="rgba(74, 222, 128, 0.6)"></stop><stop offset="100%" stop-color="rgba(74, 222, 128, 0)"></stop></radialGradient><radialGradient id="dotGlow" cx="50%" cy="50%" r="50%"><stop offset="0%" stop-color="rgba(74, 222, 128, 0.6)"></stop><stop offset="100%" stop-color="rgba(74, 222, 128, 0)"></stop></radialGradient><radialGradient id="dotGlow" cx="50%" cy="50%" r="50%"><stop offset="0%" stop-color="rgba(74, 222, 128, 0.6)"></stop><stop offset="100%" stop-color="rgba(74, 222, 128, 0)"></stop></radialGradient><radialGradient id="dotGlow" cx="50%" cy="50%" r="50%"><stop offset="0%" stop-color="rgba(74, 222, 128, 0.6)"></stop><stop offset="100%" stop-color="rgba(74, 222, 128, 0)"></stop></radialGradient></defs><rect width="364" height="164" fill="url(&quot;#bgGridRadar&quot;)"></rect><ellipse cx="210" cy="82" rx="160" ry="160" fill="url(&quot;#bgGlowRadar&quot;)"></ellipse><circle cx="210" cy="82" r="18" fill="none" stroke="#4ADE80" stroke-width="0.5px" stroke-dasharray="none" stroke-opacity="0.25"></circle><circle cx="210" cy="82" r="38" fill="none" stroke="#4ADE80" stroke-width="0.5px" stroke-dasharray="none" stroke-opacity="0.25"></circle><circle cx="210" cy="82" r="62" fill="none" stroke="#4ADE80" stroke-width="0.5px" stroke-dasharray="none" stroke-opacity="0.25"></circle><circle cx="210" cy="82" r="90" fill="none" stroke="#4ADE80" stroke-width="0.5px" stroke-dasharray="none" stroke-opacity="0.25"></circle><circle cx="210" cy="82" r="125" fill="none" stroke="#4ADE80" stroke-width="1" stroke-dasharray="1.5 4.5" stroke-opacity="0.4"></circle><g stroke="#4ADE80" stroke-width="0.5px" stroke-opacity="0.15"><line x1="78" y1="82" x2="342" y2="82" stroke="#4ADE80" stroke-width="0.5px" stroke-opacity="0.15"></line><line x1="210" y1="-50" x2="210" y2="214" stroke="#4ADE80" stroke-width="0.5px" stroke-opacity="0.15"></line><line x1="117" y1="-11" x2="303" y2="175" stroke="#4ADE80" stroke-width="0.5px" stroke-opacity="0.15"></line><line x1="117" y1="175" x2="303" y2="-11" stroke="#4ADE80" stroke-width="0.5px" stroke-opacity="0.15"></line></g><path d="M 210 82 L 335 82 A 125 125 0 0 0 280 -21 Z" fill="url(&quot;#beamGrad&quot;)"></path><line x1="210" y1="82" x2="335" y2="82" stroke="#86EFAC" stroke-width="1.2px" opacity="0.8"></line><circle cx="335" cy="82" r="1.5" fill="#FFFFFF"></circle><circle cx="210" cy="82" r="7" fill="url(&quot;#centerGlow&quot;)"></circle><circle cx="210" cy="82" r="2.5" fill="#FFFFFF"></circle><g opacity="0.9"><path d="M 118 45 L 140 45 L 161 60" fill="none" stroke="#4ADE80" stroke-width="1" stroke-dasharray="1 2" stroke-opacity="0.5"></path><path d="M 118 45 L 140 45 L 161 60" fill="none" stroke="#4ADE80" stroke-width="1" stroke-opacity="0.15"></path><circle cx="161" cy="60" r="1.2" fill="#FFFFFF" opacity="0.9"></circle><path d="M 118 82 L 166 82" fill="none" stroke="#4ADE80" stroke-width="1" stroke-dasharray="1 2" stroke-opacity="0.5"></path><path d="M 118 82 L 166 82" fill="none" stroke="#4ADE80" stroke-width="1" stroke-opacity="0.15"></path><circle cx="166" cy="82" r="1.2" fill="#FFFFFF" opacity="0.9"></circle><path d="M 118 119 L 145 119 L 174 99" fill="none" stroke="#4ADE80" stroke-width="1" stroke-dasharray="1 2" stroke-opacity="0.5"></path><path d="M 118 119 L 145 119 L 174 99" fill="none" stroke="#4ADE80" stroke-width="1" stroke-opacity="0.15"></path><circle cx="174" cy="99" r="1.2" fill="#FFFFFF" opacity="0.9"></circle></g><g><circle cx="110" cy="45" r="5" fill="url(&quot;#dotGlow&quot;)" opacity="0.8"></circle><circle cx="110" cy="45" r="1.5" fill="#FFFFFF"></circle><g stroke="#4ADE80" stroke-width="1" fill="none" opacity="0.8"><path d="M 104.5 42 L 104.5 39.5 L 107 39.5" stroke="#4ADE80" fill="none"></path><path d="M 113 39.5 L 115.5 39.5 L 115.5 42" stroke="#4ADE80" fill="none"></path><path d="M 104.5 48 L 104.5 50.5 L 107 50.5" stroke="#4ADE80" fill="none"></path><path d="M 113 50.5 L 115.5 50.5 L 115.5 48" stroke="#4ADE80" fill="none"></path></g></g><g><circle cx="110" cy="82" r="5" fill="url(&quot;#dotGlow&quot;)" opacity="0.8"></circle><circle cx="110" cy="82" r="1.5" fill="#FFFFFF"></circle><g stroke="#4ADE80" stroke-width="1" fill="none" opacity="0.8"><path d="M 104.5 79 L 104.5 76.5 L 107 76.5" stroke="#4ADE80" fill="none"></path><path d="M 113 76.5 L 115.5 76.5 L 115.5 79" stroke="#4ADE80" fill="none"></path><path d="M 104.5 85 L 104.5 87.5 L 107 87.5" stroke="#4ADE80" fill="none"></path><path d="M 113 87.5 L 115.5 87.5 L 115.5 85" stroke="#4ADE80" fill="none"></path></g></g><g><circle cx="110" cy="119" r="5" fill="url(&quot;#dotGlow&quot;)" opacity="0.8"></circle><circle cx="110" cy="119" r="1.5" fill="#FFFFFF"></circle><g stroke="#4ADE80" stroke-width="1" fill="none" opacity="0.8"><path d="M 104.5 116 L 104.5 113.5 L 107 113.5" stroke="#4ADE80" fill="none"></path><path d="M 113 113.5 L 115.5 113.5 L 115.5 116" stroke="#4ADE80" fill="none"></path><path d="M 104.5 122 L 104.5 124.5 L 107 124.5" stroke="#4ADE80" fill="none"></path><path d="M 113 124.5 L 115.5 124.5 L 115.5 122" stroke="#4ADE80" fill="none"></path></g></g><g><circle cx="260" cy="125" r="5" fill="url(&quot;#dotGlow&quot;)" opacity="0.8"></circle><circle cx="260" cy="125" r="1.5" fill="#FFFFFF"></circle><g stroke="#4ADE80" stroke-width="1" fill="none" opacity="0.8"><path d="M 254.5 122 L 254.5 119.5 L 257 119.5" stroke="#4ADE80" fill="none"></path><path d="M 263 119.5 L 265.5 119.5 L 265.5 122" stroke="#4ADE80" fill="none"></path><path d="M 254.5 128 L 254.5 130.5 L 257 130.5" stroke="#4ADE80" fill="none"></path><path d="M 263 130.5 L 265.5 130.5 L 265.5 128" stroke="#4ADE80" fill="none"></path></g></g><text x="96" y="45.5" fill="#86EFAC" font-size="6.5" opacity="0.85" text-anchor="end" dominant-baseline="middle" style="letter-spacing: 0.05em;">UNCLEAR SCOPE</text><text x="96" y="82.5" fill="#86EFAC" font-size="6.5" opacity="0.85" text-anchor="end" dominant-baseline="middle" style="letter-spacing: 0.05em;">MANUAL WORK</text><text x="96" y="119.5" fill="#86EFAC" font-size="6.5" opacity="0.85" text-anchor="end" dominant-baseline="middle" style="letter-spacing: 0.05em;">FRAGMENTED DATA</text></svg>
