<svg xmlns:xlink="http://www.w3.org/1999/xlink" xmlns="http://www.w3.org/2000/svg" viewBox="0 0 364 164" class="w-full h-full absolute inset-0" width="364" height="164"><defs><radialGradient id="ganttGlowExp" cx="50%" cy="50%" r="50%"><stop offset="0%" stop-color="rgba(74, 222, 128, 0.15)"></stop><stop offset="100%" stop-color="rgba(5, 11, 8, 0)"></stop></radialGradient><linearGradient id="barGradientExp" x1="0" y1="0" x2="1" y2="0"><stop offset="0%" stop-color="rgba(74, 222, 128, 0.2)"></stop><stop offset="100%" stop-color="rgba(74, 222, 128, 0.6)"></stop></linearGradient><pattern id="bgGridSprintExp" width="20" height="20" patternUnits="userSpaceOnUse"><line x1="20" y1="0" x2="20" y2="20" stroke="rgba(74, 222, 128, 0.04)" stroke-width="0.5"></line><line x1="0" y1="20" x2="20" y2="20" stroke="rgba(74, 222, 128, 0.04)" stroke-width="0.5"></line></pattern><pattern id="bgGridSprintExp" width="20" height="20" patternUnits="userSpaceOnUse"><line x1="20" y1="0" x2="20" y2="20" stroke="rgba(74, 222, 128, 0.04)" stroke-width="0.5"></line><line x1="0" y1="20" x2="20" y2="20" stroke="rgba(74, 222, 128, 0.04)" stroke-width="0.5"></line></pattern><radialGradient id="ganttGlowExp" cx="50%" cy="50%" r="50%"><stop offset="0%" stop-color="rgba(74, 222, 128, 0.15)"></stop><stop offset="100%" stop-color="rgba(5, 11, 8, 0)"></stop></radialGradient><linearGradient id="barGradientExp" x1="0" y1="0" x2="1" y2="0"><stop offset="0%" stop-color="rgba(74, 222, 128, 0.2)"></stop><stop offset="100%" stop-color="rgba(74, 222, 128, 0.6)"></stop></linearGradient><linearGradient id="barGradientExp" x1="0" y1="0" x2="1" y2="0"><stop offset="0%" stop-color="rgba(74, 222, 128, 0.2)"></stop><stop offset="100%" stop-color="rgba(74, 222, 128, 0.6)"></stop></linearGradient><linearGradient id="barGradientExp" x1="0" y1="0" x2="1" y2="0"><stop offset="0%" stop-color="rgba(74, 222, 128, 0.2)"></stop><stop offset="100%" stop-color="rgba(74, 222, 128, 0.6)"></stop></linearGradient><linearGradient id="barGradientExp" x1="0" y1="0" x2="1" y2="0"><stop offset="0%" stop-color="rgba(74, 222, 128, 0.2)"></stop><stop offset="100%" stop-color="rgba(74, 222, 128, 0.6)"></stop></linearGradient><linearGradient id="barGradientExp" x1="0" y1="0" x2="1" y2="0"><stop offset="0%" stop-color="rgba(74, 222, 128, 0.2)"></stop><stop offset="100%" stop-color="rgba(74, 222, 128, 0.6)"></stop></linearGradient></defs><rect width="364" height="164" fill="url(&quot;#bgGridSprintExp&quot;)"></rect><ellipse cx="182" cy="82" rx="160" ry="80" fill="url(&quot;#ganttGlowExp&quot;)"></ellipse><g stroke="#4ADE80" stroke-width="16px" fill="none" stroke-linecap="round" stroke-linejoin="round" stroke-opacity="0.03"><polyline points="-20,180 40,82 -20,-10" stroke="#4ADE80" fill="none" stroke-width="16px" stroke-opacity="0.03"></polyline><polyline points="40,180 100,82 40,-10" stroke="#4ADE80" fill="none" stroke-width="16px" stroke-opacity="0.03"></polyline><polyline points="100,180 160,82 100,-10" stroke="#4ADE80" fill="none" stroke-width="16px" stroke-opacity="0.03"></polyline><polyline points="160,180 220,82 160,-10" stroke="#4ADE80" fill="none" stroke-width="16px" stroke-opacity="0.03"></polyline><polyline points="220,180 280,82 220,-10" stroke="#4ADE80" fill="none" stroke-width="16px" stroke-opacity="0.03"></polyline><polyline points="280,180 340,82 280,-10" stroke="#4ADE80" fill="none" stroke-width="16px" stroke-opacity="0.03"></polyline></g><g><line x1="25" y1="25" x2="25" y2="140" stroke="#4ADE80" stroke-width="0.5px" stroke-dasharray="1 3" stroke-opacity="0.15"></line><polygon points="25,25 26.5,23 25,21 23.5,23" fill="#4ADE80" opacity="0.4"></polygon><polygon points="25,140 26.5,142 25,144 23.5,142" fill="#4ADE80" opacity="0.4"></polygon></g><g><line x1="85" y1="25" x2="85" y2="140" stroke="#4ADE80" stroke-width="0.5px" stroke-dasharray="1 3" stroke-opacity="0.15"></line><polygon points="85,25 86.5,23 85,21 83.5,23" fill="#4ADE80" opacity="0.4"></polygon><polygon points="85,140 86.5,142 85,144 83.5,142" fill="#4ADE80" opacity="0.4"></polygon></g><g><line x1="145" y1="25" x2="145" y2="140" stroke="#4ADE80" stroke-width="0.5px" stroke-dasharray="1 3" stroke-opacity="0.15"></line><polygon points="145,25 146.5,23 145,21 143.5,23" fill="#4ADE80" opacity="0.4"></polygon><polygon points="145,140 146.5,142 145,144 143.5,142" fill="#4ADE80" opacity="0.4"></polygon></g><g><line x1="205" y1="25" x2="205" y2="140" stroke="#4ADE80" stroke-width="0.5px" stroke-dasharray="1 3" stroke-opacity="0.15"></line><polygon points="205,25 206.5,23 205,21 203.5,23" fill="#4ADE80" opacity="0.4"></polygon><polygon points="205,140 206.5,142 205,144 203.5,142" fill="#4ADE80" opacity="0.4"></polygon></g><g><line x1="265" y1="25" x2="265" y2="140" stroke="#4ADE80" stroke-width="0.5px" stroke-dasharray="1 3" stroke-opacity="0.15"></line><polygon points="265,25 266.5,23 265,21 263.5,23" fill="#4ADE80" opacity="0.4"></polygon><polygon points="265,140 266.5,142 265,144 263.5,142" fill="#4ADE80" opacity="0.4"></polygon></g><text x="25" y="16" fill="#4ADE80" font-size="5" opacity="0.6" text-anchor="middle" style="letter-spacing: 0.1em;">T=0</text><text x="265" y="16" fill="#4ADE80" font-size="5" opacity="0.6" text-anchor="middle" style="letter-spacing: 0.1em;">SHIP</text><g><rect x="25" y="31" width="240" height="8" fill="#4ADE80" rx="1" fill-opacity="0.05"></rect><rect x="25" y="31" width="45" height="8" fill="url(&quot;#barGradientExp&quot;)" stroke="#4ADE80" stroke-width="0.5px" rx="1"></rect><rect x="68" y="31" width="2" height="8" fill="#FFFFFF" rx="0.5"></rect><rect x="66" y="31" width="1" height="8" fill="#FFFFFF" fill-opacity="0.5"></rect><line x1="72" y1="35" x2="277" y2="35" stroke="#4ADE80" stroke-width="0.5px" stroke-dasharray="1 2" stroke-opacity="0.4"></line><text x="283" y="35.5" fill="#86EFAC" font-size="6.5" opacity="0.85" dominant-baseline="middle" style="letter-spacing: 0.05em;">UX / UI DIRECTION</text><circle cx="277" cy="35" r="1.5" fill="#4ADE80"></circle><circle cx="277" cy="35" r="0.5" fill="#FFFFFF"></circle></g><g><rect x="25" y="54" width="240" height="8" fill="#4ADE80" rx="1" fill-opacity="0.05"></rect><rect x="45" y="54" width="60" height="8" fill="url(&quot;#barGradientExp&quot;)" stroke="#4ADE80" stroke-width="0.5px" rx="1"></rect><rect x="103" y="54" width="2" height="8" fill="#FFFFFF" rx="0.5"></rect><rect x="101" y="54" width="1" height="8" fill="#FFFFFF" fill-opacity="0.5"></rect><line x1="107" y1="58" x2="277" y2="58" stroke="#4ADE80" stroke-width="0.5px" stroke-dasharray="1 2" stroke-opacity="0.4"></line><text x="283" y="58.5" fill="#86EFAC" font-size="6.5" opacity="0.85" dominant-baseline="middle" style="letter-spacing: 0.05em;">SYSTEM ARCHITECTURE</text><circle cx="277" cy="58" r="1.5" fill="#4ADE80"></circle><circle cx="277" cy="58" r="0.5" fill="#FFFFFF"></circle></g><g><rect x="25" y="77" width="240" height="8" fill="#4ADE80" rx="1" fill-opacity="0.05"></rect><rect x="85" y="77" width="100" height="8" fill="url(&quot;#barGradientExp&quot;)" stroke="#4ADE80" stroke-width="0.5px" rx="1"></rect><rect x="183" y="77" width="2" height="8" fill="#FFFFFF" rx="0.5"></rect><rect x="181" y="77" width="1" height="8" fill="#FFFFFF" fill-opacity="0.5"></rect><line x1="187" y1="81" x2="277" y2="81" stroke="#4ADE80" stroke-width="0.5px" stroke-dasharray="1 2" stroke-opacity="0.4"></line><text x="283" y="81.5" fill="#86EFAC" font-size="6.5" opacity="0.85" dominant-baseline="middle" style="letter-spacing: 0.05em;">FRONTEND BUILD</text><circle cx="277" cy="81" r="1.5" fill="#4ADE80"></circle><circle cx="277" cy="81" r="0.5" fill="#FFFFFF"></circle></g><g><rect x="25" y="100" width="240" height="8" fill="#4ADE80" rx="1" fill-opacity="0.05"></rect><rect x="165" y="100" width="55" height="8" fill="url(&quot;#barGradientExp&quot;)" stroke="#4ADE80" stroke-width="0.5px" rx="1"></rect><rect x="218" y="100" width="2" height="8" fill="#FFFFFF" rx="0.5"></rect><rect x="216" y="100" width="1" height="8" fill="#FFFFFF" fill-opacity="0.5"></rect><line x1="222" y1="104" x2="277" y2="104" stroke="#4ADE80" stroke-width="0.5px" stroke-dasharray="1 2" stroke-opacity="0.4"></line><text x="283" y="104.5" fill="#86EFAC" font-size="6.5" opacity="0.85" dominant-baseline="middle" style="letter-spacing: 0.05em;">WORKFLOW LOGIC</text><circle cx="277" cy="104" r="1.5" fill="#4ADE80"></circle><circle cx="277" cy="104" r="0.5" fill="#FFFFFF"></circle></g><g><rect x="25" y="123" width="240" height="8" fill="#4ADE80" rx="1" fill-opacity="0.05"></rect><rect x="205" y="123" width="60" height="8" fill="url(&quot;#barGradientExp&quot;)" stroke="#4ADE80" stroke-width="0.5px" rx="1"></rect><rect x="263" y="123" width="2" height="8" fill="#FFFFFF" rx="0.5"></rect><rect x="261" y="123" width="1" height="8" fill="#FFFFFF" fill-opacity="0.5"></rect><line x1="267" y1="127" x2="277" y2="127" stroke="#4ADE80" stroke-width="0.5px" stroke-dasharray="1 2" stroke-opacity="0.4"></line><text x="283" y="127.5" fill="#86EFAC" font-size="6.5" opacity="0.85" dominant-baseline="middle" style="letter-spacing: 0.05em;">DEPLOYMENT-READY ASSET</text><circle cx="277" cy="127" r="1.5" fill="#4ADE80"></circle><circle cx="277" cy="127" r="0.5" fill="#FFFFFF"></circle></g></svg>