<svg xmlns:xlink="http://www.w3.org/1999/xlink" xmlns="http://www.w3.org/2000/svg" viewBox="0 0 440 172" preserveAspectRatio="xMidYMid meet" class="w-full h-full absolute inset-0" width="440" height="172"><defs><radialGradient id="boxGlowArch" cx="50%" cy="50%" r="50%"><stop offset="0%" stop-color="rgba(74, 222, 128, 0.15)"></stop><stop offset="100%" stop-color="rgba(74, 222, 128, 0)"></stop></radialGradient><radialGradient id="dotGlowArch" cx="50%" cy="50%" r="50%"><stop offset="0%" stop-color="rgba(74, 222, 128, 0.6)"></stop><stop offset="100%" stop-color="rgba(74, 222, 128, 0)"></stop></radialGradient><radialGradient id="bgGlowArch" cx="50%" cy="50%" r="50%"><stop offset="0%" stop-color="rgba(74, 222, 128, 0.1)"></stop><stop offset="100%" stop-color="rgba(5, 11, 8, 0)"></stop></radialGradient><pattern id="bgGridArch" width="20" height="20" patternUnits="userSpaceOnUse"><line x1="20" y1="0" x2="20" y2="20" stroke="rgba(74, 222, 128, 0.04)" stroke-width="0.5"></line><line x1="0" y1="20" x2="20" y2="20" stroke="rgba(74, 222, 128, 0.04)" stroke-width="0.5"></line></pattern><pattern id="bgGridArch" width="20" height="20" patternUnits="userSpaceOnUse"><line x1="20" y1="0" x2="20" y2="20" stroke="rgba(74, 222, 128, 0.04)" stroke-width="0.5"></line><line x1="0" y1="20" x2="20" y2="20" stroke="rgba(74, 222, 128, 0.04)" stroke-width="0.5"></line></pattern><radialGradient id="bgGlowArch" cx="50%" cy="50%" r="50%"><stop offset="0%" stop-color="rgba(74, 222, 128, 0.1)"></stop><stop offset="100%" stop-color="rgba(5, 11, 8, 0)"></stop></radialGradient><radialGradient id="dotGlowArch" cx="50%" cy="50%" r="50%"><stop offset="0%" stop-color="rgba(74, 222, 128, 0.6)"></stop><stop offset="100%" stop-color="rgba(74, 222, 128, 0)"></stop></radialGradient><radialGradient id="boxGlowArch" cx="50%" cy="50%" r="50%"><stop offset="0%" stop-color="rgba(74, 222, 128, 0.15)"></stop><stop offset="100%" stop-color="rgba(74, 222, 128, 0)"></stop></radialGradient><radialGradient id="boxGlowArch" cx="50%" cy="50%" r="50%"><stop offset="0%" stop-color="rgba(74, 222, 128, 0.15)"></stop><stop offset="100%" stop-color="rgba(74, 222, 128, 0)"></stop></radialGradient><radialGradient id="boxGlowArch" cx="50%" cy="50%" r="50%"><stop offset="0%" stop-color="rgba(74, 222, 128, 0.15)"></stop><stop offset="100%" stop-color="rgba(74, 222, 128, 0)"></stop></radialGradient><radialGradient id="boxGlowArch" cx="50%" cy="50%" r="50%"><stop offset="0%" stop-color="rgba(74, 222, 128, 0.15)"></stop><stop offset="100%" stop-color="rgba(74, 222, 128, 0)"></stop></radialGradient><radialGradient id="boxGlowArch" cx="50%" cy="50%" r="50%"><stop offset="0%" stop-color="rgba(74, 222, 128, 0.15)"></stop><stop offset="100%" stop-color="rgba(74, 222, 128, 0)"></stop></radialGradient></defs><rect width="440" height="172" fill="url(&quot;#bgGridArch&quot;)"></rect><ellipse cx="220" cy="86" rx="200" ry="86" fill="url(&quot;#bgGlowArch&quot;)"></ellipse><g stroke="#4ADE80" stroke-width="1" fill="none" stroke-opacity="0.4"><path d="M120,24.4 h50 M270,24.4 h48" stroke="#4ADE80" fill="none" stroke-opacity="0.4"></path><path d="M127.7,93.4 h59.2 M253.1,93.4 h59.2" stroke="#4ADE80" fill="none" stroke-opacity="0.4"></path><polyline stroke-dasharray="4 4" points="72,40.9 72,58.4 127.7,58.4 127.7,93.4" stroke="#4ADE80" fill="none" stroke-opacity="0.4"></polyline><polyline stroke-dasharray="4 4" points="367,40.9 367,58.4 312.3,58.4 312.3,93.4" stroke="#4ADE80" fill="none" stroke-opacity="0.4"></polyline><line stroke-dasharray="4 4" x1="220" y1="40.4" x2="220" y2="61.3" stroke="#4ADE80" fill="none" stroke-opacity="0.4"></line><line stroke-dasharray="4 4" x1="220" y1="125.5" x2="220" y2="141.4" stroke="#4ADE80" fill="none" stroke-opacity="0.4"></line><polyline stroke-dasharray="4 4" points="51.5,141.4 132,141.4 220,141.4 308,141.4 387,141.4" stroke="#4ADE80" fill="none" stroke-opacity="0.4"></polyline><line x1="44" y1="141.4" x2="46.5" y2="141.4" stroke="#4ADE80" fill="none" stroke-opacity="0.4"></line><line x1="389.5" y1="141.4" x2="392" y2="141.4" stroke="#4ADE80" fill="none" stroke-opacity="0.4"></line><polyline points="388,140.4 391,144.4 397,137.4" stroke="#4ADE80" fill="none" stroke-opacity="0.4"></polyline></g><g stroke="#4ADE80" stroke-width="0.5px" fill="none" stroke-opacity="0.4"><polyline points="198.8,80.9 196.5,82 196.5,84.5" stroke="#4ADE80" fill="none" stroke-width="0.5px" stroke-opacity="0.4"></polyline><line stroke-dasharray="3 3" x1="196.5" y1="90.5" x2="196.5" y2="99.4" stroke="#4ADE80" fill="none" stroke-width="0.5px" stroke-opacity="0.4"></line><polyline points="196.5,102.3 196.5,104.8 198.8,105.9" stroke="#4ADE80" fill="none" stroke-width="0.5px" stroke-opacity="0.4"></polyline><line stroke-dasharray="2 2" x1="202.6" y1="107.8" x2="215.9" y2="114.2" stroke="#4ADE80" fill="none" stroke-width="0.5px" stroke-opacity="0.4"></line><polyline points="217.8,115.1 220,116.2 222.2,115.1" stroke="#4ADE80" fill="none" stroke-width="0.5px" stroke-opacity="0.4"></polyline><line stroke-dasharray="2 2" x1="226" y1="113.3" x2="239.3" y2="106.8" stroke="#4ADE80" fill="none" stroke-width="0.5px" stroke-opacity="0.4"></line><polyline points="241.2,105.9 243.5,104.8 243.5,102.3" stroke="#4ADE80" fill="none" stroke-width="0.5px" stroke-opacity="0.4"></polyline><line stroke-dasharray="3 3" x1="243.5" y1="96.4" x2="243.5" y2="87.5" stroke="#4ADE80" fill="none" stroke-width="0.5px" stroke-opacity="0.4"></line><polyline points="243.5,84.5 243.5,82 241.2,80.9" stroke="#4ADE80" fill="none" stroke-width="0.5px" stroke-opacity="0.4"></polyline><line stroke-dasharray="2 2" x1="237.4" y1="79.1" x2="224.1" y2="72.7" stroke="#4ADE80" fill="none" stroke-width="0.5px" stroke-opacity="0.4"></line><polyline points="222.2,71.7 220,70.6 217.8,71.7" stroke="#4ADE80" fill="none" stroke-width="0.5px" stroke-opacity="0.4"></polyline><line stroke-dasharray="2 2" x1="214" y1="73.6" x2="200.7" y2="80" stroke="#4ADE80" fill="none" stroke-width="0.5px" stroke-opacity="0.4"></line></g><g><polygon points="186.9,77.4 186.9,109.5 220,125.5 253.1,109.5 253.1,77.4 220,61.3" fill="#4ADE80" stroke="#4ADE80" stroke-width="1" stroke-opacity="0.5" fill-opacity="0.05"></polygon><polygon points="207.1,87.2 207.1,99.7 220,105.9 232.9,99.7 232.9,87.2 220,80.9" fill="#4ADE80" stroke="#4ADE80" stroke-width="1" stroke-opacity="0.3" fill-opacity="0.1"></polygon><g stroke="#4ADE80" stroke-width="1" fill="none" stroke-opacity="0.3"><line x1="220" y1="125.5" x2="220" y2="93.4" stroke="#4ADE80" fill="none" stroke-opacity="0.3"></line><line x1="186.9" y1="109.5" x2="220" y2="93" stroke="#4ADE80" fill="none" stroke-opacity="0.3"></line><line x1="186.9" y1="77.4" x2="220" y2="93" stroke="#4ADE80" fill="none" stroke-opacity="0.3"></line><line x1="220" y1="61.3" x2="220" y2="93" stroke="#4ADE80" fill="none" stroke-opacity="0.3"></line><line x1="253.1" y1="77.4" x2="220" y2="93" stroke="#4ADE80" fill="none" stroke-opacity="0.3"></line><line x1="253.1" y1="109.5" x2="220" y2="93" stroke="#4ADE80" fill="none" stroke-opacity="0.3"></line></g><ellipse cx="220" cy="93" rx="12.6" ry="10.6" stroke="#4ADE80" stroke-width="0.5px" fill="none" stroke-opacity="0.4"></ellipse><ellipse cx="220" cy="93" rx="6" ry="5" fill="url(&quot;#dotGlowArch&quot;)"></ellipse><circle cx="220" cy="93" r="2.5" fill="#4ADE80"></circle></g><g><rect x="24" y="8.4" width="96" height="32" rx="2" fill="#020604" stroke="#4ADE80" stroke-width="0.8px" stroke-opacity="0.3"></rect><rect x="24" y="8.4" width="96" height="32" rx="2" fill="url(&quot;#boxGlowArch&quot;)"></rect><g transform="translate(6, 0)"><path d="M41.9,17.4h15v10h-15V17.4z M45.9,31.4h7" fill="none" stroke="#4ADE80" stroke-width="1.2px" opacity="0.8" stroke-linecap="round" stroke-linejoin="round"></path></g><text x="82" y="24.9" dominant-baseline="middle" text-anchor="middle" style="letter-spacing: 0.1em; font-size: 7px; opacity: 0.85;" fill="#86EFAC">CLIENT</text></g><g><rect x="170" y="8.4" width="100" height="32" rx="2" fill="#020604" stroke="#4ADE80" stroke-width="0.8px" stroke-opacity="0.3"></rect><rect x="170" y="8.4" width="100" height="32" rx="2" fill="url(&quot;#boxGlowArch&quot;)"></rect><g transform="translate(11, 0)"><path d="M185.3,20.4l-5,4l5,4 M199.3,20.4l5,4l-5,4 M193.3,19.4l-3,10" fill="none" stroke="#4ADE80" stroke-width="1.2px" opacity="0.8" stroke-linecap="round" stroke-linejoin="round"></path></g><text x="235" y="24.9" dominant-baseline="middle" text-anchor="middle" style="letter-spacing: 0.1em; font-size: 7px; opacity: 0.85;" fill="#86EFAC">SYSTEM</text></g><g><rect x="318" y="8.4" width="98" height="32" rx="2" fill="#020604" stroke="#4ADE80" stroke-width="0.8px" stroke-opacity="0.3"></rect><rect x="318" y="8.4" width="98" height="32" rx="2" fill="url(&quot;#boxGlowArch&quot;)"></rect><g transform="translate(13, 0)"><polygon points="329,20.9 329,16.9 336,16.9 336,20.9 340,20.9 340,27.9 336,27.9 336,31.9 329,31.9 329,27.9 325,27.9 325,20.9" fill="none" stroke="#4ADE80" stroke-width="1.2px" opacity="0.8"></polygon></g><text x="377" y="24.9" dominant-baseline="middle" text-anchor="middle" style="letter-spacing: 0.1em; font-size: 7px; opacity: 0.85;" fill="#86EFAC">SERVICES</text></g><g><rect x="24" y="70.4" width="96" height="45" rx="2" fill="#020604" stroke="#4ADE80" stroke-width="0.8px" stroke-opacity="0.3"></rect><rect x="24" y="70.4" width="96" height="45" rx="2" fill="url(&quot;#boxGlowArch&quot;)"></rect><g transform="translate(1.5, 0)" fill="none" stroke="#4ADE80" stroke-width="1.2px" opacity="0.8"><ellipse cx="51.6" cy="87.9" rx="9" ry="3.5" stroke="#4ADE80" fill="none" stroke-width="1.2px"></ellipse><path d="M42.6,87.9v12c0,2,18,2,18,0v-12 M42.6,93.9c0,2,18,2,18,0" stroke="#4ADE80" fill="none" stroke-width="1.2px"></path></g><text x="83.5" y="93.4" dominant-baseline="middle" text-anchor="middle" style="letter-spacing: 0.1em; font-size: 7px; opacity: 0.85;" fill="#86EFAC">STORAGE</text></g><g><rect x="320" y="70.4" width="96" height="45" rx="2" fill="#020604" stroke="#4ADE80" stroke-width="0.8px" stroke-opacity="0.3"></rect><rect x="320" y="70.4" width="96" height="45" rx="2" fill="url(&quot;#boxGlowArch&quot;)"></rect><g transform="translate(14, 0)"><polygon points="338.4,79.9 328.4,94.9 338.4,94.9 334.4,105.9 347.4,87.9 337.4,87.9" fill="none" stroke="#4ADE80" stroke-width="1.2px" opacity="0.8" stroke-linejoin="round"></polygon></g><text x="380" y="93.4" dominant-baseline="middle" text-anchor="middle" style="letter-spacing: 0.1em; font-size: 7px; opacity: 0.85;" fill="#86EFAC">EVENTS</text></g><g fill="#4ADE80"><circle cx="127.7" cy="93.4" r="2.2" fill="#4ADE80"></circle><circle cx="186.9" cy="93.4" r="2.2" fill="#4ADE80"></circle><circle cx="253.1" cy="93.4" r="2.2" fill="#4ADE80"></circle><circle cx="312.3" cy="93.4" r="2.2" fill="#4ADE80"></circle><circle cx="44" cy="141.4" r="8" fill="#4ADE80" stroke="#4ADE80" stroke-width="0.8px" fill-opacity="0.1"></circle><circle cx="132" cy="141.4" r="8" fill="#4ADE80" stroke="#4ADE80" stroke-width="0.8px" fill-opacity="0.1"></circle><circle cx="220" cy="141.4" r="8" fill="#4ADE80" stroke="#4ADE80" stroke-width="0.8px" fill-opacity="0.1"></circle><circle cx="308" cy="141.4" r="8" fill="#4ADE80" stroke="#4ADE80" stroke-width="0.8px" fill-opacity="0.1"></circle><circle cx="392" cy="141.4" r="8" fill="#4ADE80" stroke="#4ADE80" stroke-width="0.8px" fill-opacity="0.1"></circle><circle cx="44" cy="141.4" r="2" fill="#4ADE80"></circle><circle cx="132" cy="141.4" r="2" fill="#4ADE80"></circle><circle cx="220" cy="141.4" r="3" fill="#4ADE80"></circle><circle cx="308" cy="141.4" r="2" fill="#4ADE80"></circle><circle cx="392" cy="141.4" r="2" fill="#4ADE80"></circle></g><g fill="#86EFAC" style="letter-spacing: 0.05em; font-size: 6.5px; opacity: 0.7;"><text x="44" y="158" dominant-baseline="middle" text-anchor="middle" fill="#86EFAC">APP</text><text x="132" y="158" dominant-baseline="middle" text-anchor="middle" fill="#86EFAC">WEB</text><text x="220" y="158" dominant-baseline="middle" text-anchor="middle" fill="#86EFAC">API_GTW</text><text x="308" y="158" dominant-baseline="middle" text-anchor="middle" fill="#86EFAC">ANALYTICS</text><text x="392" y="158" dominant-baseline="middle" text-anchor="middle" fill="#86EFAC">PIPELINE</text></g></svg>