<?xml version="1.0" encoding="utf-8"?>
<!-- Generator: Adobe Illustrator 27.7.0, SVG Export Plug-In . SVG Version: 6.00 Build 0)  -->
<svg version="1.1" id="Layer_1" xmlns="http://www.w3.org/2000/svg" xmlns:xlink="http://www.w3.org/1999/xlink" x="0px" y="0px"
	 viewBox="0 0 64 64" style="enable-background:new 0 0 64 64;" xml:space="preserve">
<style type="text/css">
	.st0{fill:#F1AA3D;}
</style>
<g>
	<path class="st0" d="M42.4,26.1C42.4,26,42.4,26,42.4,26.1c0-0.1-0.1-0.2-0.1-0.3c0,0,0,0,0-0.1c0-0.1-0.1-0.1-0.1-0.1
		c0,0,0,0,0-0.1c0,0-0.1-0.1-0.2-0.1c0,0,0,0,0,0c0,0,0,0,0,0c0,0,0,0,0,0l-9.3-5.2c-0.3-0.2-0.7-0.2-1,0l-9.3,5.2c0,0,0,0,0,0
		c0,0,0,0,0,0c0,0,0,0,0,0c-0.1,0-0.1,0.1-0.2,0.1c0,0,0,0,0,0.1c0,0-0.1,0.1-0.1,0.1c0,0,0,0,0,0.1c0,0.1-0.1,0.1-0.1,0.2
		c0,0,0,0,0,0c0,0.1,0,0.1,0,0.2c0,0,0,0,0,0v11.4c0,0.4,0.2,0.7,0.5,0.9l9.3,5.2c0.1,0,0.1,0,0.2,0.1c0,0,0,0,0.1,0
		c0.1,0,0.2,0,0.3,0c0.1,0,0.2,0,0.3,0c0,0,0.1,0,0.1,0c0.1,0,0.1,0,0.2-0.1l9.3-5.2c0.3-0.2,0.5-0.5,0.5-0.9V26.3c0,0,0,0,0,0
		C42.4,26.2,42.4,26.1,42.4,26.1L42.4,26.1z M32,22.3l7.2,4l-7.2,4l-7.2-4L32,22.3z M31,41.1l-7.3-4v-9l7.3,4V41.1z M40.3,37.1
		l-7.3,4v-9l7.3-4V37.1z"/>
	<path class="st0" d="M58.5,21.4c0.3-0.2,0.5-0.5,0.5-0.9v-5.1c0-0.4-0.2-0.7-0.5-0.9l-4.2-2.3c-0.3-0.2-0.7-0.2-1,0l-4.2,2.3
		c-0.1,0.1-0.2,0.1-0.3,0.2L37.2,8.3V4.2c0-0.4-0.2-0.7-0.5-0.9L32.5,1c-0.3-0.2-0.7-0.2-1,0l-4.2,2.3c-0.3,0.2-0.5,0.5-0.5,0.9v4.1
		l-11.7,6.5c-0.1-0.1-0.2-0.2-0.3-0.2l-4.2-2.3c-0.3-0.2-0.7-0.2-1,0l-4.2,2.3C5.2,14.7,5,15.1,5,15.4v5.1c0,0.4,0.2,0.7,0.5,0.9
		l3.6,2v16.1l-3.6,2C5.2,41.7,5,42.1,5,42.4v5.1c0,0.4,0.2,0.7,0.5,0.9l4.2,2.3c0.2,0.1,0.3,0.1,0.5,0.1s0.3,0,0.5-0.1l3.5-2l12.6,7
		v4.1c0,0.4,0.2,0.7,0.5,0.9l4.2,2.3c0.2,0.1,0.3,0.1,0.5,0.1s0.3,0,0.5-0.1l4.2-2.3c0.3-0.2,0.5-0.5,0.5-0.9v-4.1l12.6-7l3.5,2
		c0.2,0.1,0.3,0.1,0.5,0.1s0.3,0,0.5-0.1l4.2-2.3c0.3-0.2,0.5-0.5,0.5-0.9v-5.1c0-0.4-0.2-0.7-0.5-0.9l-3.6-2V23.4L58.5,21.4z
		 M28.9,4.8L32,3.1l3.1,1.7v3.9L32,10.4l-3.1-1.7V4.8z M7.1,19.9v-3.8l3.1-1.7l3.1,1.7v3.8l-3.1,1.7L7.1,19.9z M13.3,46.9l-3.1,1.7
		l-3.1-1.7v-3.8l3.1-1.7l3.1,1.7V46.9z M35.1,59.2L32,60.9l-3.1-1.7v-3.9l3.1-1.7l3.1,1.7V59.2z M49.6,41.3L45,38.3
		c-0.5-0.3-1.1-0.2-1.4,0.3c-0.3,0.5-0.2,1.1,0.3,1.4l4.7,3v4l-12.1,6.7L33,51.8v-6.3c0-0.6-0.5-1-1-1c-0.6,0-1,0.5-1,1v6.3
		l-3.5,1.9L15.4,47v-4l4.6-2.9c0.5-0.3,0.6-0.9,0.3-1.4c-0.3-0.5-0.9-0.6-1.4-0.3l-4.6,2.9l-3.1-1.7V23.4l3.1-1.7l4.6,2.9
		c0.2,0.1,0.4,0.2,0.6,0.2c0.3,0,0.7-0.2,0.9-0.5c0.3-0.5,0.2-1.1-0.3-1.4L15.4,20v-3l12.1-6.7l3.5,1.9c0,0,0,0,0,0.1v4.2
		c0,0.6,0.5,1,1,1s1-0.5,1-1v-4.2c0,0,0,0,0-0.1l3.5-1.9L48.6,17v2.9l-4.7,3c-0.5,0.3-0.6,0.9-0.3,1.4c0.2,0.3,0.5,0.5,0.9,0.5
		c0.2,0,0.4-0.1,0.6-0.2l4.6-2.9l3.1,1.7v16.1L49.6,41.3z M56.9,43.1v3.8l-3.1,1.7l-3.1-1.7v-3.8l3.1-1.7L56.9,43.1z M53.8,21.6
		l-3.1-1.7v-3.8l3.1-1.7l3.1,1.7v3.8L53.8,21.6z"/>
</g>
</svg>
